<?xml version="1.0" encoding="UTF-8"?>
<svg version="1.1" xmlns="http://www.w3.org/2000/svg" width="375" height="134">
<path d="M0 0 C123.75 0 247.5 0 375 0 C375 44.22 375 88.44 375 134 C251.25 134 127.5 134 0 134 C0 89.78 0 45.56 0 0 Z " fill="#FBFBFB" transform="translate(0,0)"/>
<path d="M0 0 C0.66257812 0.32097656 1.32515625 0.64195312 2.0078125 0.97265625 C15.62153446 7.98045778 24.66318882 19.35509983 30.375 33.375 C31.00426461 36.01791135 31.15919818 38.29363096 31 41 C31.33 41 31.66 41 32 41 C32.05845196 44.37492629 32.09374742 47.74972087 32.125 51.125 C32.14175781 52.07632813 32.15851563 53.02765625 32.17578125 54.0078125 C32.21066567 59.03116861 32.17819164 63.35420664 30 68 C29.01 68.495 29.01 68.495 28 69 C28 69.99 28 70.98 28 72 C26.77504353 76.60152043 24.90751749 79.88884536 22.0625 83.6875 C21.37285156 84.61949219 20.68320313 85.55148438 19.97265625 86.51171875 C15.84495021 91.71834993 15.84495021 91.71834993 12 93 C11.0409375 94.0828125 11.0409375 94.0828125 10.0625 95.1875 C2.49893537 103.07194313 -9.45804151 106.16614308 -20.05249023 106.43188477 C-37.45759344 106.47082236 -50.69820668 101.4497653 -63.59765625 89.6171875 C-70.64326001 82.30105137 -77.4001347 71.84623815 -78.1953125 61.4453125 C-78.17210938 60.67960937 -78.14890625 59.91390625 -78.125 59.125 C-78.10695313 58.34382813 -78.08890625 57.56265625 -78.0703125 56.7578125 C-78.04710938 56.17773438 -78.02390625 55.59765625 -78 55 C-78.33 55 -78.66 55 -79 55 C-79.66723939 41.06211043 -76.75896128 29.72866239 -69 18 C-67.09654563 16.02023788 -65.24514759 14.60367685 -63 13 C-62.67 12.01 -62.34 11.02 -62 10 C-45.76888569 -3.83743482 -19.75132695 -11.21943626 0 0 Z " fill="#DDDBC7" transform="translate(79,6)"/>
<path d="M0 0 C0.66257812 0.32097656 1.32515625 0.64195312 2.0078125 0.97265625 C15.62153446 7.98045778 24.66318882 19.35509983 30.375 33.375 C31.00426461 36.01791135 31.15919818 38.29363096 31 41 C31.33 41 31.66 41 32 41 C32.05845196 44.37492629 32.09374742 47.74972087 32.125 51.125 C32.14175781 52.07632813 32.15851563 53.02765625 32.17578125 54.0078125 C32.21066567 59.03116861 32.17819164 63.35420664 30 68 C29.01 68.495 29.01 68.495 28 69 C28 69.99 28 70.98 28 72 C26.77504353 76.60152043 24.90751749 79.88884536 22.0625 83.6875 C21.37285156 84.61949219 20.68320313 85.55148438 19.97265625 86.51171875 C15.84495021 91.71834993 15.84495021 91.71834993 12 93 C11.0409375 94.0828125 11.0409375 94.0828125 10.0625 95.1875 C2.49893537 103.07194313 -9.45804151 106.16614308 -20.05249023 106.43188477 C-37.45759344 106.47082236 -50.69820668 101.4497653 -63.59765625 89.6171875 C-70.64326001 82.30105137 -77.4001347 71.84623815 -78.1953125 61.4453125 C-78.17210938 60.67960937 -78.14890625 59.91390625 -78.125 59.125 C-78.10695313 58.34382813 -78.08890625 57.56265625 -78.0703125 56.7578125 C-78.04710938 56.17773438 -78.02390625 55.59765625 -78 55 C-78.33 55 -78.66 55 -79 55 C-79.66723939 41.06211043 -76.75896128 29.72866239 -69 18 C-67.09654563 16.02023788 -65.24514759 14.60367685 -63 13 C-62.67 12.01 -62.34 11.02 -62 10 C-45.76888569 -3.83743482 -19.75132695 -11.21943626 0 0 Z M-55.25 23.1875 C-59.70663552 28.7741656 -63.57307992 35.96612338 -65 43 C-68.465 43.495 -68.465 43.495 -72 44 C-72 44.33 -72 44.66 -72 45 C-70.02 45.33 -68.04 45.66 -66 46 C-65.93941406 46.75925781 -65.87882812 47.51851562 -65.81640625 48.30078125 C-65.73261719 49.29464844 -65.64882812 50.28851563 -65.5625 51.3125 C-65.48128906 52.29863281 -65.40007812 53.28476562 -65.31640625 54.30078125 C-65.08187441 57.09375599 -65.08187441 57.09375599 -64 60 C-64.99 60.495 -64.99 60.495 -66 61 C-65.34 61 -64.68 61 -64 61 C-64.33 62.32 -64.66 63.64 -65 65 C-64.01 65 -63.02 65 -62 65 C-61.87625 66.11375 -61.7525 67.2275 -61.625 68.375 C-61.3534187 72.03103677 -61.3534187 72.03103677 -59 74 C-59.495 74.99 -59.495 74.99 -60 76 C-59.01 76 -58.02 76 -57 76 C-54.67721769 78.54399967 -52.54688029 80.90623941 -51 84 C-50.01 84 -49.02 84 -48 84 C-48.33 85.32 -48.66 86.64 -49 88 C-48.4225 87.814375 -47.845 87.62875 -47.25 87.4375 C-44.75807903 86.95295981 -43.36040848 87.10467265 -41 88 C-40.505 88.99 -40.505 88.99 -40 90 C-34.23781049 92.19548664 -28.86345672 92.27240912 -22.75 92.1875 C-21.40421875 92.1865332 -21.40421875 92.1865332 -20.03125 92.18554688 C-14.9350168 92.16241473 -14.9350168 92.16241473 -10 91 C-9.34 93.64 -8.68 96.28 -8 99 C-7.04095144 95.16380575 -7.08107884 93.67568464 -8 90 C-7.34 89.67 -6.68 89.34 -6 89 C-5.67 90.65 -5.34 92.3 -5 94 C-3.66666667 91 -3.66666667 91 -5 88 C-3.515 88.495 -3.515 88.495 -2 89 C-0.45833358 87.62514468 -0.45833358 87.62514468 1 86 C1 85.34 1 84.68 1 84 C1.99 84 2.98 84 4 84 C4.825 83.175 5.65 82.35 6.5 81.5 C7.325 80.675 8.15 79.85 9 79 C9.99 79 10.98 79 12 79 C12 77.68 12 76.36 12 75 C12.66 74.34 13.32 73.68 14 73 C16.125 73.375 16.125 73.375 18 74 C17.48824219 73.61199219 16.97648437 73.22398438 16.44921875 72.82421875 C15 71 15 71 15.14453125 68.51953125 C15.47517578 67.17955078 15.47517578 67.17955078 15.8125 65.8125 C16.13154297 64.46091797 16.13154297 64.46091797 16.45703125 63.08203125 C16.63621094 62.39496094 16.81539063 61.70789063 17 61 C19.31 61.33 21.62 61.66 24 62 C21.18490007 59.7226499 21.18490007 59.7226499 18 60 C18.33 56.37 18.66 52.74 19 49 C21.31 49 23.62 49 26 49 C26 48.67 26 48.34 26 48 C23.69 48 21.38 48 19 48 C19 47.01 19 46.02 19 45 C20.98 45 22.96 45 25 45 C25 44.67 25 44.34 25 44 C22.69 44 20.38 44 18 44 C17.690625 42.081875 17.690625 42.081875 17.375 40.125 C15.28527518 30.88087006 9.50000887 22.71654219 2 17 C-17.60421386 5.54385691 -38.91016904 5.831721 -55.25 23.1875 Z " fill="#555231" transform="translate(79,6)"/>
<path d="M0 0 C6.36786075 -0.10208207 12.73550763 -0.17174934 19.10400391 -0.21972656 C21.26684454 -0.2397439 23.42963173 -0.2669663 25.59228516 -0.30175781 C28.71530406 -0.35071247 31.8376026 -0.37306817 34.9609375 -0.390625 C36.39280899 -0.42159271 36.39280899 -0.42159271 37.85360718 -0.45318604 C44.54383757 -0.4553826 50.0797981 0.79761132 56 4 C60.05815697 8.05815697 62.28526316 12.04736933 62.3125 17.8125 C62.17098945 23.82669847 60.64504058 28.03509042 56.75 32.6875 C52.41173397 36.33558734 48.86232308 39 43 39 C46.29565387 43.69426092 49.63446421 48.35560258 53 53 C53.54011719 53.74813965 54.08023438 54.4962793 54.63671875 55.26708984 C56.30540382 57.56444909 57.99369313 59.84611815 59.6875 62.125 C60.47000122 63.20769165 60.47000122 63.20769165 61.26831055 64.31225586 C65.32577381 69.71180802 69.22740985 73.03678549 75.9375 74.75 C76.618125 74.8325 77.29875 74.915 78 75 C78 76.32 78 77.64 78 79 C59.62433406 81.35060014 59.62433406 81.35060014 54.20214844 77.83398438 C51.10992259 74.50190034 49.27094645 70.41719514 47.28564453 66.36767578 C44.80725179 61.80340446 41.56696172 57.75672044 38.4375 53.625 C37.22749277 51.99246302 36.01782843 50.3596718 34.80859375 48.7265625 C32.59133924 45.2802836 32.59133924 45.2802836 29.15234375 43.68359375 C28.42144531 43.60238281 27.69054687 43.52117188 26.9375 43.4375 C25.638125 43.293125 24.33875 43.14875 23 43 C23.09347301 47.09381399 23.19955156 51.18708609 23.31738281 55.28027344 C23.35569327 56.67308572 23.39054259 58.06599765 23.421875 59.45898438 C23.46747907 61.45986308 23.52651623 63.46042146 23.5859375 65.4609375 C23.63306885 67.26763916 23.63306885 67.26763916 23.68115234 69.11083984 C23.70915226 72.1260018 23.70915226 72.1260018 26 74 C28.65537372 74.56520003 31.29144713 74.73788198 34 75 C34 76.32 34 77.64 34 79 C22.78 79 11.56 79 0 79 C0 77.68 0 76.36 0 75 C1.27875 74.87625 2.5575 74.7525 3.875 74.625 C7.34790936 74.30957601 7.34790936 74.30957601 10 72 C10.3283412 69.22957761 10.3283412 69.22957761 10.30639648 65.94555664 C10.32238388 64.67406265 10.33837128 63.40256866 10.35484314 62.09254456 C10.36121897 60.69841918 10.36661199 59.304289 10.37109375 57.91015625 C10.38005693 56.48530479 10.38917872 55.06045433 10.39845276 53.63560486 C10.41495425 50.64710195 10.42264504 47.65871124 10.42553711 44.67016602 C10.43092483 40.83848114 10.46861365 37.00784864 10.51428127 33.17646122 C10.54400641 30.23306924 10.55125963 27.28993218 10.55226326 24.34640312 C10.55647411 22.93375257 10.56894324 21.52110184 10.58978081 20.10859871 C10.61659506 18.13385789 10.60878189 16.1587383 10.59936523 14.18383789 C10.60443588 13.05957901 10.60950653 11.93532013 10.61473083 10.7769928 C10.26574746 7.80415313 10.26574746 7.80415313 7.63832092 6.15647888 C5.06596951 5.02891701 2.77403068 4.3962901 0 4 C0 2.68 0 1.36 0 0 Z " fill="#484521" transform="translate(192,2)"/>
<path d="M0 0 C9.24 0 18.48 0 28 0 C29.08539063 2.78566406 30.17078125 5.57132812 31.2890625 8.44140625 C32.36133262 11.19203765 33.43382984 13.94258041 34.50634766 16.69311523 C35.24161014 18.57909078 35.97664305 20.46515585 36.71142578 22.35131836 C37.77834066 25.0899273 38.84612671 27.82819528 39.9140625 30.56640625 C40.26180725 31.45945465 40.609552 32.35250305 40.96783447 33.27261353 C42.57322046 37.38661 44.19225768 41.49332076 45.86230469 45.58154297 C46.28592789 46.621688 46.28592789 46.621688 46.71810913 47.68284607 C47.46807504 49.51695024 48.22473956 51.34831142 48.98193359 53.17944336 C50 56 50 56 50 59 C50.66 59 51.32 59 52 59 C52.08846191 58.21407471 52.17692383 57.42814941 52.26806641 56.6184082 C53.22690362 51.87827267 54.93566852 47.59353107 56.7109375 43.10546875 C57.0797403 42.15867752 57.44854309 41.21188629 57.82852173 40.23640442 C59.00524647 37.21794623 60.18968185 34.20259281 61.375 31.1875 C62.55193273 28.18265269 63.72717195 25.17716098 64.90005493 22.17073059 C65.62868209 20.30421112 66.3597949 18.43865933 67.09384155 16.57426453 C67.43074005 15.71339737 67.76763855 14.85253021 68.11474609 13.96557617 C68.40707123 13.22200363 68.69939636 12.47843109 69.00057983 11.71232605 C70.42694818 7.84130547 71.69541857 3.91374428 73 0 C81.58 0 90.16 0 99 0 C99 1.32 99 2.64 99 4 C98.36191406 4.12117187 97.72382813 4.24234375 97.06640625 4.3671875 C96.24011719 4.53476563 95.41382813 4.70234375 94.5625 4.875 C93.73878906 5.03742187 92.91507812 5.19984375 92.06640625 5.3671875 C91.38449219 5.57601563 90.70257813 5.78484375 90 6 C88.64975576 8.70048848 88.85043312 10.83139663 88.82299805 13.85498047 C88.81016281 15.08320526 88.79732758 16.31143005 88.78410339 17.57687378 C88.77593659 18.92364093 88.76849274 20.27041263 88.76171875 21.6171875 C88.75764322 22.29437962 88.7535677 22.97157173 88.74936867 23.66928482 C88.72851182 27.25299016 88.714208 30.83665725 88.70483398 34.42041016 C88.69376481 38.12178112 88.65935908 41.82255166 88.61966228 45.52371025 C88.59351863 48.37017943 88.58514427 51.21650497 88.58155251 54.06308365 C88.57668131 55.42745142 88.56505195 56.79181255 88.54651451 58.15606308 C88.52217407 60.06597169 88.52550287 61.97617213 88.5300293 63.88623047 C88.52122993 65.51599319 88.52122993 65.51599319 88.51225281 67.17868042 C89.12021395 70.69536425 90.19720042 71.85348037 93 74 C96.14481791 74.80315654 96.14481791 74.80315654 99 75 C99 76.32 99 77.64 99 79 C87.45 79 75.9 79 64 79 C64 78.01 64 77.02 64 76 C64.92232422 75.83564453 64.92232422 75.83564453 65.86328125 75.66796875 C66.67152344 75.50941406 67.47976563 75.35085937 68.3125 75.1875 C69.11300781 75.03667969 69.91351563 74.88585937 70.73828125 74.73046875 C73.39323341 73.87299716 74.31709996 73.21721168 76 71 C76.47422832 68.23640319 76.47422832 68.23640319 76.43237305 65.05981445 C76.45216721 63.83877518 76.47196136 62.6177359 76.49235535 61.35969543 C76.49874527 60.04087875 76.50513519 58.72206207 76.51171875 57.36328125 C76.52856431 55.99991737 76.5467144 54.63656903 76.56611633 53.27323914 C76.61363653 49.68778338 76.6434324 46.10239062 76.66955566 42.51672363 C76.6993513 38.85672561 76.74588495 35.19694475 76.79101562 31.53710938 C76.87707151 24.35818062 76.94440619 17.17923612 77 10 C76.34 10 75.68 10 75 10 C74.84520676 10.56335052 74.69041351 11.12670105 74.53092957 11.7071228 C72.37992126 19.22114883 69.58068516 26.41351688 66.67578125 33.6640625 C66.1640359 34.94999831 65.65266454 36.23608301 65.14164734 37.52230835 C63.80883478 40.87410747 62.47101995 44.2238869 61.13208008 47.57324219 C59.76140245 51.00463176 58.39556637 54.4379472 57.02929688 57.87109375 C54.3575449 64.58260141 51.68049458 71.29197853 49 78 C47.68 78 46.36 78 45 78 C44.76054153 77.36487991 44.52108307 76.72975983 44.27436829 76.07539368 C41.76000493 69.406758 39.24503824 62.73835008 36.72973633 56.07006836 C35.79366509 53.58837239 34.85783697 51.10658515 33.92211914 48.62475586 C32.56957429 45.03744624 31.21647688 41.45034543 29.86328125 37.86328125 C29.45161209 36.77106766 29.03994293 35.67885406 28.61579895 34.55354309 C28.21576157 33.49342514 27.81572418 32.43330719 27.40356445 31.34106445 C27.01407623 30.30704498 26.62458801 29.27302551 26.22329712 28.20767212 C25.35756001 25.93757703 24.47661839 23.6732533 23.58505249 21.41317749 C23.12667999 20.24839874 22.6683075 19.08362 22.19604492 17.88354492 C21.77586594 16.82785812 21.35568695 15.77217133 20.92277527 14.68449402 C20 12 20 12 20 9 C19.34 9 18.68 9 18 9 C18.09262572 16.40175279 18.19997664 23.80318895 18.31738281 31.20458984 C18.3555761 33.72049157 18.39044552 36.2364461 18.421875 38.75244141 C18.46773506 42.37681909 18.52569558 46.00083626 18.5859375 49.625 C18.59748871 50.74302002 18.60903992 51.86104004 18.62094116 53.01293945 C18.62713801 62.9402591 18.62713801 62.9402591 22.36328125 71.89453125 C24.24991059 73.16879402 26.03534568 73.94659441 28.1875 74.6875 C28.90292969 74.93886719 29.61835938 75.19023438 30.35546875 75.44921875 C30.89816406 75.63097656 31.44085938 75.81273438 32 76 C32 77.32 32 78.64 32 80 C21.44 80 10.88 80 0 80 C0 78.68 0 77.36 0 76 C0.69867188 75.82984375 1.39734375 75.6596875 2.1171875 75.484375 C3.02726562 75.24203125 3.93734375 74.9996875 4.875 74.75 C5.77992188 74.51796875 6.68484375 74.2859375 7.6171875 74.046875 C10.07344948 73.224513 10.07344948 73.224513 11.129776 71.29075623 C12.18685982 68.50811482 12.2749224 66.27810449 12.30639648 63.30102539 C12.32238388 62.15626236 12.33837128 61.01149933 12.35484314 59.83204651 C12.36020584 58.59969772 12.36556854 57.36734894 12.37109375 56.09765625 C12.38012222 54.8278038 12.3891507 53.55795135 12.39845276 52.24961853 C12.41296172 49.56381035 12.42263872 46.87842775 12.42553711 44.19262695 C12.43092423 40.75797964 12.46862455 37.32450664 12.51428127 33.89019108 C12.55124236 30.60524938 12.55256696 27.32027796 12.55859375 24.03515625 C12.57812607 22.8048317 12.59765839 21.57450714 12.61778259 20.30690002 C12.82669555 13.44690431 12.82669555 13.44690431 9.59130859 7.74316406 C7.36727632 6.24706547 5.78080661 5.24684064 3.1875 4.6875 C1.6096875 4.3471875 1.6096875 4.3471875 0 4 C0 2.68 0 1.36 0 0 Z " fill="#47441F" transform="translate(275,1)"/>
<path d="M0 0 C0.66 0.33 1.32 0.66 2 1 C2 1.99 2 2.98 2 4 C2.66 4 3.32 4 4 4 C3.125 8.875 3.125 8.875 2 10 C2.99 10.33 3.98 10.66 5 11 C5.09765625 17.15234375 5.09765625 17.15234375 5 19 C4.505 19.495 4.505 19.495 4 20 C4.99 20 5.98 20 7 20 C6.67 18.35 6.34 16.7 6 15 C6.66 15 7.32 15 8 15 C8.33 13.35 8.66 11.7 9 10 C9.99 10.66 10.98 11.32 12 12 C12.99 12 13.98 12 15 12 C15.33 10.35 15.66 8.7 16 7 C18.51083114 8.25541557 18.87125446 9.50063488 20 12 C21.32 11.67 22.64 11.34 24 11 C23.67 12.32 23.34 13.64 23 15 C23.66 15 24.32 15 25 15 C24.505 17.475 24.505 17.475 24 20 C24.66 20 25.32 20 26 20 C24.72727273 30.90909091 24.72727273 30.90909091 22 36 C20.68 36 19.36 36 18 36 C17.34 36.66 16.68 37.32 16 38 C15 39 15 39 12.625 39.0625 C11.75875 39.041875 10.8925 39.02125 10 39 C9.01 39 8.02 39 7 39 C4.58314288 43.22949995 3.65166856 46.12335991 4 51 C4.825 50.360625 5.65 49.72125 6.5 49.0625 C10.23191406 46.53586919 13.55723303 46.30639772 18 46 C17.01 45.67 16.02 45.34 15 45 C15 43.35 15 41.7 15 40 C15.99 40 16.98 40 18 40 C18.33 39.01 18.66 38.02 19 37 C19.639375 36.855625 20.27875 36.71125 20.9375 36.5625 C23.20311706 36.19895007 23.20311706 36.19895007 24.25 33.9375 C24.4975 33.298125 24.745 32.65875 25 32 C25.99 32 26.98 32 28 32 C28.99 31.67 29.98 31.34 31 31 C30.51171875 37.0546875 30.51171875 37.0546875 30 39 C29.01 39.66 28.02 40.32 27 41 C26.01 40.505 26.01 40.505 25 40 C25 40.66 25 41.32 25 42 C24.34 42 23.68 42 23 42 C23.33 42.66 23.66 43.32 24 44 C24.66 43.67 25.32 43.34 26 43 C25.67 44.32 25.34 45.64 25 47 C25.66 46.34 26.32 45.68 27 45 C29.625 45.375 29.625 45.375 32 46 C32.33 45.01 32.66 44.02 33 43 C34.32 43 35.64 43 37 43 C36.67 43.99 36.34 44.98 36 46 C34.515 46.495 34.515 46.495 33 47 C34.485 47.99 34.485 47.99 36 49 C36 49.66 36 50.32 36 51 C34.68 51 33.36 51 32 51 C32 51.99 32 52.98 32 54 C31.34 54 30.68 54 30 54 C29.9175 54.763125 29.835 55.52625 29.75 56.3125 C28.85384206 59.52373261 27.78388975 60.29374499 25 62 C24.34 60.68 23.68 59.36 23 58 C22.01 58.495 22.01 58.495 21 59 C21.33 57.35 21.66 55.7 22 54 C22.66 54 23.32 54 24 54 C23.67 53.34 23.34 52.68 23 52 C22.01 52.66 21.02 53.32 20 54 C20 52.02 20 50.04 20 48 C13.27401179 48.86091773 13.27401179 48.86091773 7.4375 52 C4.74562399 55.7452188 4.86543167 58.2726354 4.875 62.875 C4.87242188 64.10992187 4.86984375 65.34484375 4.8671875 66.6171875 C4.89011131 70.13926551 4.89011131 70.13926551 6 74 C1.71 74 -2.58 74 -7 74 C-6.34 72.35 -5.68 70.7 -5 69 C-4.33871133 63.78658466 -4.2280538 58.68711878 -6.6875 53.9375 C-9.04909326 50.93763829 -10.34606128 49.91348468 -14 49 C-14 49.99 -14 50.98 -14 52 C-15.98 51.67 -17.96 51.34 -20 51 C-20.33 53.64 -20.66 56.28 -21 59 C-21.99 58.67 -22.98 58.34 -24 58 C-24.495 56.515 -24.495 56.515 -25 55 C-25.66 55 -26.32 55 -27 55 C-27.66 54.34 -28.32 53.68 -29 53 C-29.99 53 -30.98 53 -32 53 C-32 52.34 -32 51.68 -32 51 C-33.32 51 -34.64 51 -36 51 C-35.67 50.01 -35.34 49.02 -35 48 C-34.01 48 -33.02 48 -32 48 C-32 47.34 -32 46.68 -32 46 C-27.125 45 -27.125 45 -26 45 C-25.67 44.34 -25.34 43.68 -25 43 C-25.33 42.67 -25.66 42.34 -26 42 C-26.25910191 40.52887696 -26.45873776 39.04698431 -26.625 37.5625 C-26.72039063 36.75941406 -26.81578125 35.95632812 -26.9140625 35.12890625 C-27 33 -27 33 -26 31 C-27.32 30.67 -28.64 30.34 -30 30 C-30.103125 29.360625 -30.20625 28.72125 -30.3125 28.0625 C-30.6528125 27.0415625 -30.6528125 27.0415625 -31 26 C-31.99 25.67 -32.98 25.34 -34 25 C-34 24.34 -34 23.68 -34 23 C-32.68 23.33 -31.36 23.66 -30 24 C-29.67 23.34 -29.34 22.68 -29 22 C-28.34 22 -27.68 22 -27 22 C-27 21.34 -27 20.68 -27 20 C-28.32 19.34 -29.64 18.68 -31 18 C-30.360625 17.87625 -29.72125 17.7525 -29.0625 17.625 C-28.381875 17.41875 -27.70125 17.2125 -27 17 C-26.67 16.34 -26.34 15.68 -26 15 C-25.01 15 -24.02 15 -23 15 C-23.33 13.68 -23.66 12.36 -24 11 C-21.36 11.66 -18.72 12.32 -16 13 C-16.66 12.34 -17.32 11.68 -18 11 C-18 9.68 -18 8.36 -18 7 C-17.34 7 -16.68 7 -16 7 C-16 7.66 -16 8.32 -16 9 C-15.34 9 -14.68 9 -14 9 C-14 8.34 -14 7.68 -14 7 C-13.38125 7.33 -12.7625 7.66 -12.125 8 C-10.08981656 9.14193235 -10.08981656 9.14193235 -8 9 C-7.34 8.34 -6.68 7.68 -6 7 C-5.67 8.32 -5.34 9.64 -5 11 C-4.01 10.67 -3.02 10.34 -2 10 C-2.495 9.54625 -2.99 9.0925 -3.5 8.625 C-5 7 -5 7 -5 5 C-4.01 5 -3.02 5 -2 5 C-1.34 3.35 -0.68 1.7 0 0 Z " fill="#C6C09A" transform="translate(56,19)"/>
<path d="M0 0 C27.06 0 54.12 0 82 0 C82 25.41 82 50.82 82 77 C73 75 73 75 70.9627533 73.25512695 C69.72275003 70.35057727 69.611754 68.07896222 69.59594727 64.91796875 C69.58326309 63.68989502 69.57057892 62.46182129 69.55751038 61.1965332 C69.55956175 59.86018709 69.56254972 58.52384213 69.56640625 57.1875 C69.56184369 55.81274152 69.5565379 54.43798531 69.55052185 53.06323242 C69.54159564 50.1849642 69.54400848 47.30697353 69.55395508 44.42871094 C69.56545194 40.74300149 69.54522144 37.05824912 69.51603794 33.37266541 C69.49767995 30.53472832 69.49796734 27.69702087 69.50367546 24.85903931 C69.50382869 23.50028133 69.49778301 22.14150781 69.48538399 20.7828064 C69.47048439 18.88260156 69.4837758 16.98223906 69.49829102 15.08203125 C69.49845718 14.00155518 69.49862335 12.9210791 69.49879456 11.80786133 C70.12501129 8.29965968 71.16339902 7.10586339 74 5 C77.75 4.75 77.75 4.75 81 5 C81 3.68 81 2.36 81 1 C72.42 1 63.84 1 55 1 C54.34 3.97 53.68 6.94 53 10 C52.39112915 11.88676164 51.73892417 13.76053767 51.02880859 15.61157227 C50.45844376 17.11210899 50.45844376 17.11210899 49.8765564 18.64295959 C49.47127716 19.69019699 49.06599792 20.73743439 48.6484375 21.81640625 C48.22954254 22.91347397 47.81064758 24.01054169 47.37905884 25.14085388 C46.05022181 28.61700912 44.71275844 32.08976963 43.375 35.5625 C42.46817651 37.93011897 41.56192057 40.2979554 40.65625 42.66601562 C38.44406022 48.44654259 36.22479359 54.22431307 34 60 C33.34 60 32.68 60 32 60 C29.34356055 53.20688267 26.69327496 46.4113875 24.04711914 39.61425781 C23.14747093 37.30544613 22.24645004 34.9971688 21.34399414 32.68945312 C20.04206018 29.35949282 18.7451845 26.02759935 17.44921875 22.6953125 C17.0491008 21.67511017 16.64898285 20.65490784 16.23674011 19.60379028 C13.85712101 13.46794783 11.81117606 7.32771719 10 1 C6.7 1 3.4 1 0 1 C0 0.67 0 0.34 0 0 Z " fill="#FBFBFA" transform="translate(293,0)"/>
<path d="M0 0 C2.42910282 1.04735339 2.42910282 1.04735339 5.3828125 0.875 C5.7128125 0.215 6.0428125 -0.445 6.3828125 -1.125 C8.0328125 -1.125 9.6828125 -1.125 11.3828125 -1.125 C11.3828125 7.455 11.3828125 16.035 11.3828125 24.875 C10.0628125 24.875 8.7428125 24.875 7.3828125 24.875 C7.07988281 24.00617187 6.77695313 23.13734375 6.46484375 22.2421875 C3.67797307 14.57614939 1.38420868 9.40564369 -4.7421875 4 C-10.21815213 1.85723123 -16.27882741 1.87284567 -21.6796875 4.1875 C-24.09122604 6.28787227 -25.49723169 7.95585804 -25.91796875 11.1796875 C-26.04154528 18.09588778 -26.04154528 18.09588778 -22.6171875 23.875 C-18.03678081 27.64275389 -12.72405813 29.69830815 -7.2421875 31.8125 C10.23011959 38.56961417 10.23011959 38.56961417 14.3828125 46.875 C16.25004602 52.94350895 16.51642755 59.66682461 14.39453125 65.671875 C10.62239152 72.68486718 5.06271203 76.91307308 -2.44921875 79.5078125 C-12.60721557 81.22826602 -22.2988354 80.29726879 -31.6171875 75.875 C-32.2771875 76.865 -32.9371875 77.855 -33.6171875 78.875 C-35.2671875 78.875 -36.9171875 78.875 -38.6171875 78.875 C-38.9471875 69.965 -39.2771875 61.055 -39.6171875 51.875 C-37.9671875 51.875 -36.3171875 51.875 -34.6171875 51.875 C-34.32585937 52.66003906 -34.03453125 53.44507813 -33.734375 54.25390625 C-30.46608353 62.63018784 -27.09026804 69.86143554 -18.6171875 73.875 C-14.08691337 75.59337984 -8.95884049 75.66787548 -4.390625 74.12109375 C-0.34590294 72.29085412 -0.34590294 72.29085412 2.58203125 69.06640625 C4.35217755 64.2222498 4.31261733 58.66441449 2.68359375 53.77734375 C-0.87866663 47.75195909 -7.37493013 46.16573665 -13.6171875 43.875 C-16.10983715 42.88534929 -18.58311904 41.85348807 -21.0546875 40.8125 C-22.18777344 40.34714844 -23.32085937 39.88179687 -24.48828125 39.40234375 C-30.74048193 36.3503956 -33.58930782 32.93075936 -36.6171875 26.875 C-38.46200152 20.71332118 -38.54403399 15.00190644 -35.6171875 9.1875 C-32.04390463 3.4137209 -27.43388653 0.00167961 -21.1796875 -2.5 C-13.15810248 -3.90729562 -7.57518313 -3.10776744 0 0 Z " fill="#484521" transform="translate(161.6171875,3.125)"/>
<path d="M0 0 C0.66257812 0.32097656 1.32515625 0.64195312 2.0078125 0.97265625 C12.40840123 6.32646484 20.64461073 14.41436077 26.3125 24.625 C26.84488281 25.56601562 27.37726563 26.50703125 27.92578125 27.4765625 C29 30 29 30 28 33 C26.25372522 30.38058783 25.61277612 28.96175123 25 26 C24.01 26 23.02 26 22 26 C22 26.99 22 27.98 22 29 C20.02 28.505 20.02 28.505 18 28 C17.34 28.99 16.68 29.98 16 31 C15.01 31 14.02 31 13 31 C11.67578125 29.49609375 11.67578125 29.49609375 10.3125 27.4375 C4.04692478 18.74555006 -3.95305437 13.01173641 -14.453125 10.38671875 C-26.4732752 8.56157324 -37.1003988 10.55426206 -47.3125 17.1875 C-51.53350908 20.31091121 -54.50288475 23.84095981 -57.4296875 28.1796875 C-59 30 -59 30 -60.9609375 30.87890625 C-64.63803166 31.09727774 -66.96689551 28.92485477 -70 27 C-73.17218843 30.62535821 -74.42902597 34.51150278 -76 39 C-76.66 39 -77.32 39 -78 39 C-75.436015 28.63160451 -71.72051579 19.48968617 -63 13 C-62.67 12.01 -62.34 11.02 -62 10 C-45.76888569 -3.83743482 -19.75132695 -11.21943626 0 0 Z " fill="#5F5D3D" transform="translate(79,6)"/>
<path d="M0 0 C16 0 16 0 22 4 C25.4261253 7.69660888 26.2826698 10.52332405 26.4375 15.4375 C26.20517122 20.96092927 25.50820777 25.30209584 21.60546875 29.5 C14.81936597 35.54736248 9.53767168 34 0 34 C0 22.78 0 11.56 0 0 Z " fill="#FAFAF9" transform="translate(214,6)"/>
<path d="M0 0 C20.79 0 41.58 0 63 0 C63 0.66 63 1.32 63 2 C62.29617187 1.96519531 61.59234375 1.93039063 60.8671875 1.89453125 C44.70863545 1.45154223 31.27966527 6.04975916 18.328125 15.60546875 C16.65517241 17.04110542 16.65517241 17.04110542 17 20 C15.33881441 21.00907889 13.67135704 22.00785917 12 23 C6.34490159 30.25183207 1.96627408 39.82039624 1 49 C0.67 49 0.34 49 0 49 C0 32.83 0 16.66 0 0 Z " fill="#FDFDFD" transform="translate(0,0)"/>
<path d="M0 0 C0.928125 0.5259375 0.928125 0.5259375 1.875 1.0625 C2.57625 1.371875 3.2775 1.68125 4 2 C4.66 1.67 5.32 1.34 6 1 C6.2475 2.216875 6.495 3.43375 6.75 4.6875 C7.7292664 8.63929138 9.31543497 10.9086827 12 14 C13.04451438 15.97711651 14.05698138 17.97250996 15 20 C15.24234375 19.48050781 15.4846875 18.96101563 15.734375 18.42578125 C17.33877205 15.08740122 18.80225785 12.23729059 21.1875 9.375 C23.32874843 6.5692262 23.67686955 4.4736523 24 1 C24.33 1 24.66 1 25 1 C25 2.65 25 4.3 25 6 C25.598125 5.773125 26.19625 5.54625 26.8125 5.3125 C27.8953125 5.1578125 27.8953125 5.1578125 29 5 C30.75 6.4375 30.75 6.4375 32 8 C31 11 31 11 30 12 C28.33391013 12.04384447 26.66619446 12.0396713 25 12 C24.01 12 23.02 12 22 12 C19.58314288 16.22949995 18.65166856 19.12335991 19 24 C19.825 23.360625 20.65 22.72125 21.5 22.0625 C25.23191406 19.53586919 28.55723303 19.30639772 33 19 C32.01 18.67 31.02 18.34 30 18 C30 16.35 30 14.7 30 13 C30.99 13 31.98 13 33 13 C33.33 12.01 33.66 11.02 34 10 C34.639375 9.855625 35.27875 9.71125 35.9375 9.5625 C38.20311706 9.19895007 38.20311706 9.19895007 39.25 6.9375 C39.4975 6.298125 39.745 5.65875 40 5 C40.99 5 41.98 5 43 5 C43.99 4.67 44.98 4.34 46 4 C45.51171875 10.0546875 45.51171875 10.0546875 45 12 C44.01 12.66 43.02 13.32 42 14 C41.34 13.67 40.68 13.34 40 13 C40 13.66 40 14.32 40 15 C39.34 15 38.68 15 38 15 C38.495 15.99 38.495 15.99 39 17 C39.66 16.67 40.32 16.34 41 16 C40.67 17.32 40.34 18.64 40 20 C40.66 19.34 41.32 18.68 42 18 C44.625 18.375 44.625 18.375 47 19 C47.495 17.515 47.495 17.515 48 16 C49.32 16 50.64 16 52 16 C51.505 17.485 51.505 17.485 51 19 C50.01 19.33 49.02 19.66 48 20 C48.99 20.66 49.98 21.32 51 22 C51 22.66 51 23.32 51 24 C49.68 24 48.36 24 47 24 C47 24.99 47 25.98 47 27 C46.34 27 45.68 27 45 27 C44.9175 27.763125 44.835 28.52625 44.75 29.3125 C43.85384206 32.52373261 42.78388975 33.29374499 40 35 C39.34 33.68 38.68 32.36 38 31 C37.01 31.495 37.01 31.495 36 32 C36.33 30.35 36.66 28.7 37 27 C37.66 27 38.32 27 39 27 C38.505 26.01 38.505 26.01 38 25 C37.01 25.66 36.02 26.32 35 27 C35 25.02 35 23.04 35 21 C28.27401179 21.86091773 28.27401179 21.86091773 22.4375 25 C19.74562399 28.7452188 19.86543167 31.2726354 19.875 35.875 C19.87242188 37.10992187 19.86984375 38.34484375 19.8671875 39.6171875 C19.89011131 43.13926551 19.89011131 43.13926551 21 47 C16.71 47 12.42 47 8 47 C8.66 45.35 9.32 43.7 10 42 C10.64786132 36.89244213 10.76886757 31.71844141 8.5 27 C5.24542159 23.09450591 2.8364206 22.37031917 -2 21 C-2 20.67 -2 20.34 -2 20 C4.11774896 19.50059192 7.02495953 20.75099398 12 24 C11.01 20.7 10.02 17.4 9 14 C7.35 14.33 5.7 14.66 4 15 C1.6875 13.0625 1.6875 13.0625 0 11 C1.32 10.01 2.64 9.02 4 8 C3.525625 7.608125 3.05125 7.21625 2.5625 6.8125 C0.64820367 4.59191626 0.38733012 2.86624291 0 0 Z " fill="#8E883C" transform="translate(41,46)"/>
<path d="M0 0 C0 3 0 6 0 9 C0.66 9 1.32 9 2 9 C1.67 10.32 1.34 11.64 1 13 C-2.3 13 -5.6 13 -9 13 C-9.125 5.25 -9.125 5.25 -8 3 C-11.63 3.33 -15.26 3.66 -19 4 C-19.33 4.99 -19.66 5.98 -20 7 C-17.525 7.99 -17.525 7.99 -15 9 C-14.67 8.01 -14.34 7.02 -14 6 C-13.505 9.465 -13.505 9.465 -13 13 C-14.32 12.67 -15.64 12.34 -17 12 C-17.07089844 12.77601562 -17.14179687 13.55203125 -17.21484375 14.3515625 C-18 17 -18 17 -20.00390625 18.3359375 C-20.84824219 18.67882812 -21.69257812 19.02171875 -22.5625 19.375 C-29.05264643 22.33688371 -34.45231736 26.23688503 -38.25 32.375 C-40 35 -40 35 -41.8125 36.125 C-45.45109819 35.9170801 -47.95435328 33.93281427 -51 32 C-54.17218843 35.62535821 -55.42902597 39.51150278 -57 44 C-57.66 44 -58.32 44 -59 44 C-56.436015 33.63160451 -52.72051579 24.48968617 -44 18 C-43.67 17.01 -43.34 16.02 -43 15 C-30.79332852 4.59350431 -16.05868714 -0.83062175 0 0 Z " fill="#555331" transform="translate(60,1)"/>
<path d="M0 0 C2.51083114 1.25541557 2.87125446 2.50063488 4 5 C5.32 4.67 6.64 4.34 8 4 C7.67 5.32 7.34 6.64 7 8 C7.66 8 8.32 8 9 8 C8.67 9.65 8.34 11.3 8 13 C8.66 13 9.32 13 10 13 C8.72727273 23.90909091 8.72727273 23.90909091 6 29 C0.43037975 28.24050633 0.43037975 28.24050633 -2.125 26.8125 C-3.99065297 25.75135503 -3.99065297 25.75135503 -5.921875 26.6796875 C-8.40948055 28.2601587 -9.53711851 29.83922909 -11.125 32.3125 C-11.62257813 33.07175781 -12.12015625 33.83101562 -12.6328125 34.61328125 C-14.00896001 37.01564162 -15.03652344 39.40778925 -16 42 C-17.5493666 39.6759501 -18.74393337 37.5598824 -19.9375 35.0625 C-21.38861032 32.1117292 -22.9642742 29.59092374 -25 27 C-25.4640625 25.9790625 -25.4640625 25.9790625 -25.9375 24.9375 C-27.23282895 22.57542956 -28.78016342 21.47989105 -31 20 C-29.46395304 23.14191424 -27.94268841 26.08596738 -26 29 C-27.32 29.33 -28.64 29.66 -30 30 C-30 29.01 -30 28.02 -30 27 C-31.65 27.66 -33.3 28.32 -35 29 C-35 27.68 -35 26.36 -35 25 C-34.01 25 -33.02 25 -32 25 C-32.33 24.34 -32.66 23.68 -33 23 C-34.65 23.33 -36.3 23.66 -38 24 C-38.33 23.34 -38.66 22.68 -39 22 C-37.02 21.67 -35.04 21.34 -33 21 C-33 20.01 -33 19.02 -33 18 C-32.34 18 -31.68 18 -31 18 C-31.33 17.01 -31.66 16.02 -32 15 C-32.66 14.67 -33.32 14.34 -34 14 C-34 14.99 -34 15.98 -34 17 C-36.31 17.33 -38.62 17.66 -41 18 C-40.67 17.34 -40.34 16.68 -40 16 C-39.34 16 -38.68 16 -38 16 C-37.67 15.34 -37.34 14.68 -37 14 C-36.34 14.33 -35.68 14.66 -35 15 C-35 13.68 -35 12.36 -35 11 C-31.51329166 12.1094072 -28.22515763 13.26337666 -25 15 C-25 16.32 -25 17.64 -25 19 C-24.34 19 -23.68 19 -23 19 C-23 19.66 -23 20.32 -23 21 C-21.35 20.67 -19.7 20.34 -18 20 C-17.67 20.66 -17.34 21.32 -17 22 C-17.99 22 -18.98 22 -20 22 C-20 22.99 -20 23.98 -20 25 C-19.05125 24.814375 -18.1025 24.62875 -17.125 24.4375 C-14 24 -14 24 -12 25 C-12.495 22.525 -12.495 22.525 -13 20 C-11.68 20.33 -10.36 20.66 -9 21 C-9.33 20.01 -9.66 19.02 -10 18 C-9.01 18 -8.02 18 -7 18 C-7.495 17.0925 -7.99 16.185 -8.5 15.25 C-10 12 -10 12 -10 8 C-9.34 8 -8.68 8 -8 8 C-7.67 6.35 -7.34 4.7 -7 3 C-6.01 3.66 -5.02 4.32 -4 5 C-3.01 5 -2.02 5 -1 5 C-0.67 3.35 -0.34 1.7 0 0 Z " fill="#C7C19B" transform="translate(72,26)"/>
<path d="M0 0 C0.99 0.33 1.98 0.66 3 1 C3 1.66 3 2.32 3 3 C2.01 3.495 2.01 3.495 1 4 C1.33 4.66 1.66 5.32 2 6 C2.99 5.67 3.98 5.34 5 5 C5 6.65 5 8.3 5 10 C8.465 11.485 8.465 11.485 12 13 C12.33 12.34 12.66 11.68 13 11 C15.15305957 14.85756507 16.39253254 17.55129785 16 22 C15.278125 21.690625 14.55625 21.38125 13.8125 21.0625 C11.19692691 20.07439461 8.74881018 19.4712246 6 19 C5.67 20.32 5.34 21.64 5 23 C3.02 22.67 1.04 22.34 -1 22 C-1.33 24.64 -1.66 27.28 -2 30 C-2.99 29.67 -3.98 29.34 -5 29 C-5.33 28.01 -5.66 27.02 -6 26 C-6.66 26 -7.32 26 -8 26 C-8.66 25.34 -9.32 24.68 -10 24 C-10.99 24 -11.98 24 -13 24 C-13 23.34 -13 22.68 -13 22 C-14.32 22 -15.64 22 -17 22 C-16.505 20.515 -16.505 20.515 -16 19 C-15.01 19 -14.02 19 -13 19 C-13 18.34 -13 17.68 -13 17 C-8.125 16 -8.125 16 -7 16 C-6.67 15.34 -6.34 14.68 -6 14 C-6.33 13.67 -6.66 13.34 -7 13 C-7.23192865 11.48530552 -7.41215238 9.96245438 -7.5625 8.4375 C-7.64628906 7.61121094 -7.73007812 6.78492188 -7.81640625 5.93359375 C-7.87699219 5.29550781 -7.93757813 4.65742187 -8 4 C-7.01 3.67 -6.02 3.34 -5 3 C-4.34 3.33 -3.68 3.66 -3 4 C-2.67 3.01 -2.34 2.02 -2 1 C-1.34 0.67 -0.68 0.34 0 0 Z " fill="#B0A468" transform="translate(37,48)"/>
<path d="M0 0 C0.66 0 1.32 0 2 0 C1.51171875 6.0546875 1.51171875 6.0546875 1 8 C0.01 8.66 -0.98 9.32 -2 10 C-2.66 9.67 -3.32 9.34 -4 9 C-4 9.66 -4 10.32 -4 11 C-4.66 11 -5.32 11 -6 11 C-5.67 11.66 -5.34 12.32 -5 13 C-4.34 12.67 -3.68 12.34 -3 12 C-3.33 13.32 -3.66 14.64 -4 16 C-3.34 15.34 -2.68 14.68 -2 14 C0.625 14.375 0.625 14.375 3 15 C3.33 14.01 3.66 13.02 4 12 C5.32 12 6.64 12 8 12 C7.67 12.99 7.34 13.98 7 15 C6.01 15.33 5.02 15.66 4 16 C4.99 16.66 5.98 17.32 7 18 C7 18.66 7 19.32 7 20 C5.68 20 4.36 20 3 20 C3 20.99 3 21.98 3 23 C2.34 23 1.68 23 1 23 C0.87625 24.1446875 0.87625 24.1446875 0.75 25.3125 C-0.14615794 28.52373261 -1.21611025 29.29374499 -4 31 C-4.66 29.68 -5.32 28.36 -6 27 C-6.66 27.33 -7.32 27.66 -8 28 C-7.67 26.35 -7.34 24.7 -7 23 C-6.34 23 -5.68 23 -5 23 C-5.33 22.34 -5.66 21.68 -6 21 C-6.99 21.66 -7.98 22.32 -9 23 C-9 21.02 -9 19.04 -9 17 C-11.31 16.67 -13.62 16.34 -16 16 C-16 15.67 -16 15.34 -16 15 C-14.35 15 -12.7 15 -11 15 C-11.99 14.67 -12.98 14.34 -14 14 C-14 12.35 -14 10.7 -14 9 C-13.01 9 -12.02 9 -11 9 C-10.67 8.01 -10.34 7.02 -10 6 C-9.360625 5.855625 -8.72125 5.71125 -8.0625 5.5625 C-5.79688294 5.19895007 -5.79688294 5.19895007 -4.75 2.9375 C-4.37875 1.9784375 -4.37875 1.9784375 -4 1 C-3.01 1 -2.02 1 -1 1 C-0.67 0.67 -0.34 0.34 0 0 Z " fill="#ACA771" transform="translate(85,50)"/>
<path d="M0 0 C2.51083114 1.25541557 2.87125446 2.50063488 4 5 C5.32 4.67 6.64 4.34 8 4 C7.67 5.32 7.34 6.64 7 8 C7.66 8 8.32 8 9 8 C8.67 9.65 8.34 11.3 8 13 C8.66 13 9.32 13 10 13 C8.72727273 23.90909091 8.72727273 23.90909091 6 29 C3.625 28.8125 3.625 28.8125 1 28 C-0.3125 25.4375 -0.3125 25.4375 -1 23 C0.65 22.67 2.3 22.34 4 22 C2.68 21.67 1.36 21.34 0 21 C0.66 19.68 1.32 18.36 2 17 C2.99 17 3.98 17 5 17 C2.10813214 15.66695302 2.10813214 15.66695302 -0.1875 16.9375 C-0.785625 17.288125 -1.38375 17.63875 -2 18 C-2 17.01 -2 16.02 -2 15 C-2.763125 15.061875 -3.52625 15.12375 -4.3125 15.1875 C-7 15 -7 15 -8.8125 13.75 C-10 12 -10 12 -10 8 C-9.34 8 -8.68 8 -8 8 C-7.67 6.35 -7.34 4.7 -7 3 C-6.01 3.66 -5.02 4.32 -4 5 C-3.01 5 -2.02 5 -1 5 C-0.67 3.35 -0.34 1.7 0 0 Z " fill="#B6B281" transform="translate(72,26)"/>
<path d="M0 0 C0.66 0 1.32 0 2 0 C2.39832031 0.95712891 2.39832031 0.95712891 2.8046875 1.93359375 C3.15789062 2.75988281 3.51109375 3.58617188 3.875 4.4375 C4.39707031 5.67306641 4.39707031 5.67306641 4.9296875 6.93359375 C5.8244937 9.15746715 5.8244937 9.15746715 8 10 C7.67 7.69 7.34 5.38 7 3 C9.64 3 12.28 3 15 3 C17 9.875 17 9.875 17 11 C9.74 11 2.48 11 -5 11 C-4.34 9.68 -3.68 8.36 -3 7 C-42.93 7 -82.86 7 -124 7 C-124 6.67 -124 6.34 -124 6 C-83.74 6 -43.48 6 -2 6 C-1.34 4.02 -0.68 2.04 0 0 Z " fill="#939285" transform="translate(251,123)"/>
<path d="M0 0 C0.87527344 0.11859375 1.75054687 0.2371875 2.65234375 0.359375 C3.96912109 0.52179688 3.96912109 0.52179688 5.3125 0.6875 C7.58984375 1.109375 7.58984375 1.109375 9.58984375 2.109375 C9.58984375 2.769375 9.58984375 3.429375 9.58984375 4.109375 C8.95046875 4.7075 8.31109375 5.305625 7.65234375 5.921875 C5.33809919 8.37637681 4.95592902 9.81460761 4.58984375 13.109375 C5.90984375 13.769375 7.22984375 14.429375 8.58984375 15.109375 C6.58984375 16.109375 6.58984375 16.109375 3.27734375 15.171875 C-4.65674241 13.02909261 -13.38702363 13.61669916 -21.41015625 15.109375 C-21.41015625 13.129375 -21.41015625 11.149375 -21.41015625 9.109375 C-20.09015625 9.769375 -18.77015625 10.429375 -17.41015625 11.109375 C-17.74015625 10.119375 -18.07015625 9.129375 -18.41015625 8.109375 C-20.91463141 6.89067571 -20.91463141 6.89067571 -23.41015625 6.109375 C-23.08015625 4.789375 -22.75015625 3.469375 -22.41015625 2.109375 C-16.47015625 1.614375 -16.47015625 1.614375 -10.41015625 1.109375 C-10.41015625 2.099375 -10.41015625 3.089375 -10.41015625 4.109375 C-11.07015625 4.109375 -11.73015625 4.109375 -12.41015625 4.109375 C-12.41015625 6.749375 -12.41015625 9.389375 -12.41015625 12.109375 C-9.11015625 12.109375 -5.81015625 12.109375 -2.41015625 12.109375 C-2.08015625 10.789375 -1.75015625 9.469375 -1.41015625 8.109375 C-2.07015625 8.109375 -2.73015625 8.109375 -3.41015625 8.109375 C-3.41015625 6.789375 -3.41015625 5.469375 -3.41015625 4.109375 C-4.07015625 3.779375 -4.73015625 3.449375 -5.41015625 3.109375 C-3.6450858 0.84915277 -2.92840705 0.13289367 0 0 Z " fill="#514E2C" transform="translate(63.41015625,1.890625)"/>
<path d="M0 0 C1.32 0 2.64 0 4 0 C4 0.66 4 1.32 4 2 C5.32 2.66 6.64 3.32 8 4 C7.33333333 5.33333333 6.66666667 6.66666667 6 8 C5.5875 9.155 5.175 10.31 4.75 11.5 C3 15 3 15 0.75 16.6875 C-3.46006504 17.16591648 -5.52178892 15.31880739 -9 13 C-12.17218843 16.62535821 -13.42902597 20.51150278 -15 25 C-15.66 25 -16.32 25 -17 25 C-14.88070649 16.42987449 -11.72792462 7.06714631 -5 1 C-4.34 1.33 -3.68 1.66 -3 2 C-2.67 2 -2.34 2 -2 2 C-1.34 1.34 -0.68 0.68 0 0 Z " fill="#6A674A" transform="translate(18,20)"/>
<path d="M0 0 C2.10353495 -0.0810206 4.20795952 -0.13919907 6.3125 -0.1875 C7.48425781 -0.22230469 8.65601563 -0.25710937 9.86328125 -0.29296875 C13 0 13 0 14.92578125 1.35546875 C16 3 16 3 15.875 5.5 C14.95189993 8.13742877 14.00414059 9.13669091 12 11 C12.76412087 12.12956998 13.53659803 13.25348978 14.3125 14.375 C14.74175781 15.00148438 15.17101562 15.62796875 15.61328125 16.2734375 C17.06920339 18.26378845 17.06920339 18.26378845 20 20 C17.3125 20.4375 17.3125 20.4375 14 20 C11.89292415 17.92559199 10.34439148 15.62929661 9 13 C9 12.34 9 11.68 9 11 C8.01 11 7.02 11 6 11 C6 13.64 6 16.28 6 19 C6.99 19.33 7.98 19.66 9 20 C6.03 20 3.06 20 0 20 C0.66 19.34 1.32 18.68 2 18 C2.30675232 15.10032243 2.51173371 12.28216822 2.625 9.375 C2.66367188 8.57320312 2.70234375 7.77140625 2.7421875 6.9453125 C2.83653931 4.96392444 2.91936215 2.98199355 3 1 C2.01 0.67 1.02 0.34 0 0 Z " fill="#3E3A10" transform="translate(229,88)"/>
<path d="M0 0 C2.31 0.66 4.62 1.32 7 2 C7 3.32 7 4.64 7 6 C6.34 6 5.68 6 5 6 C5 7.65 5 9.3 5 11 C3.35 11.66 1.7 12.32 0 13 C1.98 13 3.96 13 6 13 C6 12.01 6 11.02 6 10 C6.99 10.33 7.98 10.66 9 11 C9 11.99 9 12.98 9 14 C8.34 14 7.68 14 7 14 C7 14.99 7 15.98 7 17 C5.35 17.66 3.7 18.32 2 19 C2 19.99 2 20.98 2 22 C1.4225 21.690625 0.845 21.38125 0.25 21.0625 C-1.84294184 20.07416636 -3.74535275 19.4831387 -6 19 C-6.1546875 18.0409375 -6.1546875 18.0409375 -6.3125 17.0625 C-6.539375 16.381875 -6.76625 15.70125 -7 15 C-7.99 14.67 -8.98 14.34 -10 14 C-10 13.34 -10 12.68 -10 12 C-8.68 12.33 -7.36 12.66 -6 13 C-5.67 12.34 -5.34 11.68 -5 11 C-4.34 11 -3.68 11 -3 11 C-3 10.34 -3 9.68 -3 9 C-4.32 8.34 -5.64 7.68 -7 7 C-6.360625 6.87625 -5.72125 6.7525 -5.0625 6.625 C-4.381875 6.41875 -3.70125 6.2125 -3 6 C-2.67 5.34 -2.34 4.68 -2 4 C-1.01 4 -0.02 4 1 4 C0.67 2.68 0.34 1.36 0 0 Z " fill="#AA9D5D" transform="translate(32,30)"/>
<path d="M0 0 C1.95803507 -0.05389087 3.91648909 -0.09274217 5.875 -0.125 C7.51082031 -0.15980469 7.51082031 -0.15980469 9.1796875 -0.1953125 C12 0 12 0 14 2 C13.85778002 5.3421695 13.59165449 7.31732174 11.375 9.875 C8.16894306 11.39365855 5.49954689 11.20189694 2 11 C1.67 13.64 1.34 16.28 1 19 C1.99 19.33 2.98 19.66 4 20 C1.03 20 -1.94 20 -5 20 C-4.01 19.67 -3.02 19.34 -2 19 C-1.87882812 18.28714844 -1.75765625 17.57429688 -1.6328125 16.83984375 C-0.68936031 11.44765159 0.37362209 6.22764328 2 1 C1.34 0.67 0.68 0.34 0 0 Z " fill="#3B3713" transform="translate(361,88)"/>
<path d="M0 0 C1.32 0 2.64 0 4 0 C4 3.63 4 7.26 4 11 C4.99 11 5.98 11 7 11 C6.67 7.37 6.34 3.74 6 0 C7.32 0 8.64 0 10 0 C10 1.32 10 2.64 10 4 C11.65 4.33 13.3 4.66 15 5 C15 7.31 15 9.62 15 12 C12.20807795 12.05380578 9.4171859 12.09357669 6.625 12.125 C5.8309375 12.14175781 5.036875 12.15851563 4.21875 12.17578125 C2.14507985 12.19335473 0.07116759 12.10335168 -2 12 C-2.66 11.34 -3.32 10.68 -4 10 C-3.625 7.375 -3.625 7.375 -3 5 C-1.35 4.67 0.3 4.34 2 4 C1.34 2.68 0.68 1.36 0 0 Z " fill="#A8A799" transform="translate(273,122)"/>
<path d="M0 0 C0 3 0 6 0 9 C0.66 9 1.32 9 2 9 C1.67 10.32 1.34 11.64 1 13 C-2.3 13 -5.6 13 -9 13 C-9.125 5.25 -9.125 5.25 -8 3 C-9.75070517 3.11470137 -11.50057536 3.24219028 -13.25 3.375 C-14.71179688 3.47941406 -14.71179688 3.47941406 -16.203125 3.5859375 C-18.98123884 3.84628581 -18.98123884 3.84628581 -21.171875 5.1015625 C-23 6 -23 6 -26 5 C-18.03442831 0.26371413 -9.08973756 -0.29802418 0 0 Z " fill="#737157" transform="translate(60,1)"/>
<path d="M0 0 C2.6640625 -0.40625 2.6640625 -0.40625 6 0 C8.11056208 2.16406929 9.68764097 4.04797675 11.375 6.5 C11.82488281 7.12003906 12.27476562 7.74007812 12.73828125 8.37890625 C13.84303557 9.90675796 14.9239261 11.45181463 16 13 C16.05391993 11.20866022 16.09275571 9.41686101 16.125 7.625 C16.14820313 6.62726563 16.17140625 5.62953125 16.1953125 4.6015625 C16.27216848 1.83737827 16.27216848 1.83737827 14 0 C16.64 0 19.28 0 22 0 C21.01 0.33 20.02 0.66 19 1 C19 7.27 19 13.54 19 20 C14.75197923 17.87598962 12.90934506 15.60847792 10.25 11.875 C9.63318359 11.03001953 9.63318359 11.03001953 9.00390625 10.16796875 C7.99523915 8.78398366 6.99660714 7.39269459 6 6 C5.91917906 7.95766281 5.86089222 9.91626728 5.8125 11.875 C5.77769531 12.96554688 5.74289063 14.05609375 5.70703125 15.1796875 C5.80371094 16.11039063 5.90039062 17.04109375 6 18 C6.99 18.66 7.98 19.32 9 20 C6.03 20 3.06 20 0 20 C0.99 19.34 1.98 18.68 3 18 C3.30471206 15.42189701 3.41857771 13.13600582 3.375 10.5625 C3.38660156 9.88123047 3.39820313 9.19996094 3.41015625 8.49804688 C3.39220778 5.44381519 3.37841067 3.4899933 1.4765625 1.02734375 C0.98929688 0.68832031 0.50203125 0.34929687 0 0 Z " fill="#484520" transform="translate(146,88)"/>
<path d="M0 0 C0.33 0 0.66 0 1 0 C1 1.98 1 3.96 1 6 C2.98 5.67 4.96 5.34 7 5 C6.67 6.32 6.34 7.64 6 9 C6.78375 8.505 7.5675 8.01 8.375 7.5 C11 6 11 6 13 6 C13 6.66 13 7.32 13 8 C12.360625 8.28875 11.72125 8.5775 11.0625 8.875 C8.84793921 9.82823451 8.84793921 9.82823451 8 12 C9.32 11.67 10.64 11.34 12 11 C12 11.66 12 12.32 12 13 C10.02 13.99 10.02 13.99 8 15 C8.66 15.66 9.32 16.32 10 17 C9.34 17.66 8.68 18.32 8 19 C7.4225 18.62875 6.845 18.2575 6.25 17.875 C4.02238854 16.70751964 4.02238854 16.70751964 1.9375 17.875 C0.9784375 18.431875 0.9784375 18.431875 0 19 C-0.99 19 -1.98 19 -3 19 C-3 18.34 -3 17.68 -3 17 C-3.66 16.67 -4.32 16.34 -5 16 C-5 14.35 -5 12.7 -5 11 C-3.68 11.33 -2.36 11.66 -1 12 C-1.33 11.01 -1.66 10.02 -2 9 C-1.01 9 -0.02 9 1 9 C0.67 8.34 0.34 7.68 0 7 C-0.04022391 4.6670134 -0.04320247 2.33293334 0 0 Z " fill="#BEBB91" transform="translate(64,35)"/>
<path d="M0 0 C3.48670834 1.1094072 6.77484237 2.26337666 10 4 C10 5.32 10 6.64 10 8 C10.66 8.33 11.32 8.66 12 9 C11.67 11.31 11.34 13.62 11 16 C10.5875 15.401875 10.175 14.80375 9.75 14.1875 C8.0092701 12.01158763 6.28304179 10.57451158 4 9 C5.53604696 12.14191424 7.05731159 15.08596738 9 18 C7.68 18.33 6.36 18.66 5 19 C5 18.01 5 17.02 5 16 C3.35 16.66 1.7 17.32 0 18 C0 16.68 0 15.36 0 14 C0.99 14 1.98 14 3 14 C2.67 13.34 2.34 12.68 2 12 C0.35 12.33 -1.3 12.66 -3 13 C-3.33 12.34 -3.66 11.68 -4 11 C-2.02 10.67 -0.04 10.34 2 10 C2 9.01 2 8.02 2 7 C2.66 7 3.32 7 4 7 C3.67 6.01 3.34 5.02 3 4 C2.34 3.67 1.68 3.34 1 3 C1 3.99 1 4.98 1 6 C-1.31 6.33 -3.62 6.66 -6 7 C-5.67 6.34 -5.34 5.68 -5 5 C-4.34 5 -3.68 5 -3 5 C-2.67 4.34 -2.34 3.68 -2 3 C-1.34 3.33 -0.68 3.66 0 4 C0 2.68 0 1.36 0 0 Z " fill="#D8D5BC" transform="translate(37,37)"/>
<path d="M0 0 C0.66 0.33 1.32 0.66 2 1 C2 1.99 2 2.98 2 4 C2.66 4 3.32 4 4 4 C3.125 8.875 3.125 8.875 2 10 C2.99 10.33 3.98 10.66 5 11 C5.09765625 17.15234375 5.09765625 17.15234375 5 19 C4.67 19.33 4.34 19.66 4 20 C5.32 20.33 6.64 20.66 8 21 C8.33 22.32 8.66 23.64 9 25 C8.34 25.33 7.68 25.66 7 26 C7 26.66 7 27.32 7 28 C5.125 27.8125 5.125 27.8125 3 27 C0.88377526 23.21307151 0.572111 19.24996744 0 15 C-0.33 14.67 -0.66 14.34 -1 14 C-1.04063832 12.33382885 -1.042721 10.66611905 -1 9 C-2.32 8.34 -3.64 7.68 -5 7 C-5 6.34 -5 5.68 -5 5 C-4.01 5 -3.02 5 -2 5 C-1.34 3.35 -0.68 1.7 0 0 Z " fill="#A39E61" transform="translate(56,19)"/>
<path d="M0 0 C4.95 0 9.9 0 15 0 C15 1.65 15 3.3 15 5 C14.649375 4.525625 14.29875 4.05125 13.9375 3.5625 C11.15836457 1.32126175 8.4855283 1.32882342 5 1 C5 3.64 5 6.28 5 9 C8.93075644 8.42547254 8.93075644 8.42547254 12 6 C12 8.64 12 11.28 12 14 C11.34 13.01 10.68 12.02 10 11 C7.43717258 10.27034634 7.43717258 10.27034634 5 10 C5.33 12.64 5.66 15.28 6 18 C10.79308342 18.46522293 10.79308342 18.46522293 14.9375 16.5 C15.4634375 15.7575 15.4634375 15.7575 16 15 C16 16.65 16 18.3 16 20 C10.72 20 5.44 20 0 20 C0.66 19.67 1.32 19.34 2 19 C2 13.06 2 7.12 2 1 C1.34 0.67 0.68 0.34 0 0 Z " fill="#4D4A29" transform="translate(208,88)"/>
<path d="M0 0 C0 1.98 0 3.96 0 6 C-0.8353125 5.01 -0.8353125 5.01 -1.6875 4 C-3.84062308 1.74507789 -3.84062308 1.74507789 -6.75 1.75 C-7.86375 1.87375 -7.86375 1.87375 -9 2 C-9 3.65 -9 5.3 -9 7 C-7.906875 7.268125 -6.81375 7.53625 -5.6875 7.8125 C-0.42433234 9.5074184 -0.42433234 9.5074184 1 12 C0.77669287 15.64734979 0.61627165 17.38372835 -2 20 C-4.6015625 20.1953125 -4.6015625 20.1953125 -7.625 20.125 C-9.12933594 20.09792969 -9.12933594 20.09792969 -10.6640625 20.0703125 C-11.43492187 20.04710938 -12.20578125 20.02390625 -13 20 C-13 17.69 -13 15.38 -13 13 C-12.46375 13.825 -11.9275 14.65 -11.375 15.5 C-9.19728131 18.33951208 -9.19728131 18.33951208 -5.75 18.3125 C-4.8425 18.209375 -3.935 18.10625 -3 18 C-3 16.35 -3 14.7 -3 13 C-3.56589844 12.72285156 -4.13179688 12.44570312 -4.71484375 12.16015625 C-5.44832031 11.79792969 -6.18179687 11.43570313 -6.9375 11.0625 C-8.03384766 10.52302734 -8.03384766 10.52302734 -9.15234375 9.97265625 C-11 9 -11 9 -12 8 C-12.57188245 2.73868149 -12.57188245 2.73868149 -10.5 0.0625 C-6.74062617 -1.53523388 -3.98734193 -0.73101269 0 0 Z " fill="#47431D" transform="translate(265,88)"/>
<path d="M0 0 C0 0.66 0 1.32 0 2 C-0.66 2 -1.32 2 -2 2 C-2 4.64 -2 7.28 -2 10 C1.3 10 4.6 10 8 10 C8 10.33 8 10.66 8 11 C-1.405 11.99 -1.405 11.99 -11 13 C-11 11.02 -11 9.04 -11 7 C-9.68 7.66 -8.36 8.32 -7 9 C-7.33 8.01 -7.66 7.02 -8 6 C-10.50447516 4.78130071 -10.50447516 4.78130071 -13 4 C-12.67 2.68 -12.34 1.36 -12 0 C-3.42857143 -1.28571429 -3.42857143 -1.28571429 0 0 Z " fill="#45421B" transform="translate(53,4)"/>
<path d="M0 0 C4.62 0 9.24 0 14 0 C16 6.875 16 6.875 16 8 C10.72 8 5.44 8 0 8 C0 5.36 0 2.72 0 0 Z " fill="#D0CFC8" transform="translate(321,126)"/>
<path d="M0 0 C1.98 0.66 3.96 1.32 6 2 C6.33 3.98 6.66 5.96 7 8 C7.99 7.67 8.98 7.34 10 7 C10 7.66 10 8.32 10 9 C9.33613281 9.18175781 8.67226562 9.36351563 7.98828125 9.55078125 C3.26546387 10.89523291 -0.92835339 12.14984737 -5 15 C-5.67081836 8.56014376 -3.75430238 5.16216577 0 0 Z " fill="#E3E2D1" transform="translate(64,56)"/>
<path d="M0 0 C5.94 0 11.88 0 18 0 C18 1.65 18 3.3 18 5 C17.5875 4.525625 17.175 4.05125 16.75 3.5625 C14.86673565 1.63715751 14.86673565 1.63715751 11 1 C11 6.94 11 12.88 11 19 C11.99 19.33 12.98 19.66 14 20 C11.03 20 8.06 20 5 20 C5.66 19.34 6.32 18.68 7 18 C7.30675232 15.10032243 7.51173371 12.28216822 7.625 9.375 C7.68300781 8.17230469 7.68300781 8.17230469 7.7421875 6.9453125 C7.83653931 4.96392444 7.91936215 2.98199355 8 1 C4.27385847 2.11854586 4.27385847 2.11854586 2 5 C1.34 5 0.68 5 0 5 C0 3.35 0 1.7 0 0 Z " fill="#4C4925" transform="translate(283,88)"/>
<path d="M0 0 C2 1 2 1 3.375 2.5 C5.22951249 4.21185769 6.54524501 4.57676638 9 5 C9.33 4.34 9.66 3.68 10 3 C12.15305957 6.85756507 13.39253254 9.55129785 13 14 C12.34 13.731875 11.68 13.46375 11 13.1875 C7.35060933 11.74294953 3.67754567 10.37128822 0 9 C0 7.35 0 5.7 0 4 C-0.99 4.99 -1.98 5.98 -3 7 C-3.1875 4.625 -3.1875 4.625 -3 2 C-2.01 1.34 -1.02 0.68 0 0 Z " fill="#BEBA90" transform="translate(40,56)"/>
<path d="M0 0 C0.66 0 1.32 0 2 0 C2.26554688 0.63808594 2.53109375 1.27617188 2.8046875 1.93359375 C3.15789062 2.75988281 3.51109375 3.58617188 3.875 4.4375 C4.39707031 5.67306641 4.39707031 5.67306641 4.9296875 6.93359375 C5.8244937 9.15746715 5.8244937 9.15746715 8 10 C7.67 7.69 7.34 5.38 7 3 C9.64 3 12.28 3 15 3 C17 9.875 17 9.875 17 11 C12.05 11 7.1 11 2 11 C1.08159233 7.32636934 0.50452219 3.74787912 0 0 Z " fill="#75735C" transform="translate(251,123)"/>
<path d="M0 0 C5.23599186 0.2575078 8.66077412 0.8811814 13 4 C12.67 5.32 12.34 6.64 12 8 C10.04174127 8.02694851 8.08337774 8.04637218 6.125 8.0625 C5.03445313 8.07410156 3.94390625 8.08570313 2.8203125 8.09765625 C0 8 0 8 -2 7 C-2.125 4.625 -2.125 4.625 -2 2 C-1.34 1.34 -0.68 0.68 0 0 Z " fill="#E7E6E3" transform="translate(351,126)"/>
<path d="M0 0 C1.32 0.33 2.64 0.66 4 1 C3.67 1.33 3.34 1.66 3 2 C3.04125 3.27875 3.0825 4.5575 3.125 5.875 C3.19432314 9.75709607 3.19432314 9.75709607 1.5 11.875 C1.005 12.24625 0.51 12.6175 0 13 C0 13.66 0 14.32 0 15 C-2.375 14.8125 -2.375 14.8125 -5 14 C-6.3125 11.4375 -6.3125 11.4375 -7 9 C-5.35 8.67 -3.7 8.34 -2 8 C-3.32 7.67 -4.64 7.34 -6 7 C-5.34 5.68 -4.68 4.36 -4 3 C-3.01 3 -2.02 3 -1 3 C-0.67 2.01 -0.34 1.02 0 0 Z " fill="#AAA46A" transform="translate(78,40)"/>
<path d="M0 0 C0.66 0 1.32 0 2 0 C2.54372951 3.05847848 3 5.88772805 3 9 C3.66 9.474375 4.32 9.94875 5 10.4375 C5.66 10.953125 6.32 11.46875 7 12 C7 13.32 7 14.64 7 16 C4.36 16 1.72 16 -1 16 C-1 14.66666667 -1 13.33333333 -1 12 C-1.99 12 -2.98 12 -4 12 C-4 11.34 -4 10.68 -4 10 C-4.66 10 -5.32 10 -6 10 C-5.67 8.35 -5.34 6.7 -5 5 C-4.34 5 -3.68 5 -3 5 C-3 6.32 -3 7.64 -3 9 C-2.34 8.67 -1.68 8.34 -1 8 C-1.33 7.34 -1.66 6.68 -2 6 C-1.39421747 3.98072489 -0.73080266 1.97746603 0 0 Z " fill="#9F9A5C" transform="translate(53,35)"/>
<path d="M0 0 C0.55429688 0.30035156 1.10859375 0.60070313 1.6796875 0.91015625 C2.76636719 1.48056641 2.76636719 1.48056641 3.875 2.0625 C4.95394531 2.63677734 4.95394531 2.63677734 6.0546875 3.22265625 C6.69664063 3.47917969 7.33859375 3.73570313 8 4 C8.66 3.67 9.32 3.34 10 3 C9.39009109 6.55780196 8.4216319 9.6828589 7 13 C6.67 13 6.34 13 6 13 C6 11.35 6 9.7 6 8 C4.02 8.66 2.04 9.32 0 10 C-0.33 9.34 -0.66 8.68 -1 8 C-2.98 8.99 -2.98 8.99 -5 10 C-3.25892857 2.90178571 -3.25892857 2.90178571 0 0 Z " fill="#484520" transform="translate(9,32)"/>
<path d="M0 0 C0.99 0 1.98 0 3 0 C4.1875 2.25 4.1875 2.25 5 5 C3.75 7.3125 3.75 7.3125 2 9 C1.34 9 0.68 9 0 9 C-0.66 9.495 -1.32 9.99 -2 10.5 C-4 12 -4 12 -6 12 C-6.66 9.69 -7.32 7.38 -8 5 C-6.35 3.68 -4.7 2.36 -3 1 C-2.01 1.66 -1.02 2.32 0 3 C0 2.01 0 1.02 0 0 Z " fill="#4A4723" transform="translate(101,32)"/>
<path d="M0 0 C1.32 0 2.64 0 4 0 C4 1.32 4 2.64 4 4 C5.65 4.33 7.3 4.66 9 5 C9.33 7.31 9.66 9.62 10 12 C6.7 12 3.4 12 0 12 C0 8.04 0 4.08 0 0 Z " fill="#A09F8F" transform="translate(365,122)"/>
<path d="M0 0 C2.64 0 5.28 0 8 0 C7.01 0.495 7.01 0.495 6 1 C6.34933594 1.55429688 6.69867188 2.10859375 7.05859375 2.6796875 C7.51363281 3.40414062 7.96867187 4.12859375 8.4375 4.875 C9.11619141 5.95394531 9.11619141 5.95394531 9.80859375 7.0546875 C11.62518177 10.0207886 12.00271431 10.84799864 11.9375 14.5 C11.59587188 18.05878466 11.59587188 18.05878466 14 20 C11.03 20 8.06 20 5 20 C5.99 19.67 6.98 19.34 8 19 C6.86991836 11.60986087 5.45347501 5.45347501 0 0 Z " fill="#3D3915" transform="translate(303,88)"/>
<path d="M0 0 C0.66 0 1.32 0 2 0 C3.98950264 10.68150445 3.98950264 10.68150445 4.5 15.0625 C4.72793454 18.11355373 4.72793454 18.11355373 7 20 C4.36 20 1.72 20 -1 20 C-0.34 19.67 0.32 19.34 1 19 C1 17.02 1 15.04 1 13 C-1.64 13 -4.28 13 -7 13 C-6.67 12.01 -6.34 11.02 -6 10 C-5.67 10.66 -5.34 11.32 -5 12 C-3.02 12 -1.04 12 1 12 C-0.21044132 7.39257135 -0.21044132 7.39257135 -2 3 C-1.34 2.01 -0.68 1.02 0 0 Z " fill="#4A462E" transform="translate(346,88)"/>
<path d="M0 0 C0.61875 0.350625 1.2375 0.70125 1.875 1.0625 C2.57625 1.371875 3.2775 1.68125 4 2 C4.66 1.67 5.32 1.34 6 1 C6.268125 2.2375 6.53625 3.475 6.8125 4.75 C7.63881995 8.10283779 8.62671274 10.41095936 11 13 C8 15 8 15 5.5 14.8125 C2.86337925 13.95559826 1.74310252 13.11007147 0 11 C1.32 10.01 2.64 9.02 4 8 C3.525625 7.608125 3.05125 7.21625 2.5625 6.8125 C0.64820367 4.59191626 0.38733012 2.86624291 0 0 Z " fill="#958F49" transform="translate(41,46)"/>
<path d="M0 0 C0.66 0 1.32 0 2 0 C2 0.66 2 1.32 2 2 C2.66 2 3.32 2 4 2 C4 1.34 4 0.68 4 0 C4.61875 0.33 5.2375 0.66 5.875 1 C7.91018344 2.14193235 7.91018344 2.14193235 10 2 C10.66 1.34 11.32 0.68 12 0 C12.33 1.32 12.66 2.64 13 4 C13.66 4 14.32 4 15 4 C15 5.32 15 6.64 15 8 C14.34 8 13.68 8 13 8 C12.34 7.34 11.68 6.68 11 6 C10.608125 6.515625 10.21625 7.03125 9.8125 7.5625 C9.214375 8.036875 8.61625 8.51125 8 9 C5.3125 8.6875 5.3125 8.6875 3 8 C3 7.01 3 6.02 3 5 C2.01 4.67 1.02 4.34 0 4 C0 2.68 0 1.36 0 0 Z " fill="#A5A063" transform="translate(38,26)"/>
<path d="M0 0 C0.33 0 0.66 0 1 0 C1 1.65 1 3.3 1 5 C1.598125 4.773125 2.19625 4.54625 2.8125 4.3125 C3.8953125 4.1578125 3.8953125 4.1578125 5 4 C6.75 5.4375 6.75 5.4375 8 7 C7 10 7 10 6 11 C4.33391013 11.04384447 2.66619446 11.0396713 1 11 C0.01 11 -0.98 11 -2 11 C-3.32 14.3 -4.64 17.6 -6 21 C-6.66 20.34 -7.32 19.68 -8 19 C-8 15.11650553 -6.32142794 12.981026 -4 10.0625 C-1.36892273 6.74532842 -0.21658425 4.33168504 0 0 Z " fill="#908A3E" transform="translate(65,47)"/>
<path d="M0 0 C-0.66 0 -1.32 0 -2 0 C-2 0.66 -2 1.32 -2 2 C-3.65 1.67 -5.3 1.34 -7 1 C-7 3.64 -7 6.28 -7 9 C-6.34 9.33 -5.68 9.66 -5 10 C-6 12 -6 12 -7.9375 12.6875 C-10 13 -10 13 -12 12 C-11.814375 11.484375 -11.62875 10.96875 -11.4375 10.4375 C-10.83732143 7.09364794 -11.31359887 4.30720543 -12 1 C-12.66 0.67 -13.32 0.34 -14 0 C-12.41773035 -0.19627391 -10.83410729 -0.38165538 -9.25 -0.5625 C-8.36828125 -0.66691406 -7.4865625 -0.77132812 -6.578125 -0.87890625 C-4.11567549 -0.99456676 -2.33461936 -0.73638695 0 0 Z " fill="#46431E" transform="translate(65,99)"/>
<path d="M0 0 C2.64 0 5.28 0 8 0 C7.01 0.495 7.01 0.495 6 1 C6 6.94 6 12.88 6 19 C6.99 19.33 7.98 19.66 9 20 C6.03 20 3.06 20 0 20 C0.66 19.34 1.32 18.68 2 18 C2.19852102 15.29077199 2.27839477 12.70696821 2.25 10 C2.25773437 9.26265625 2.26546875 8.5253125 2.2734375 7.765625 C2.41008865 3.41578097 2.41008865 3.41578097 0 0 Z " fill="#4C4925" transform="translate(271,88)"/>
<path d="M0 0 C2.64 0 5.28 0 8 0 C7.01 0.495 7.01 0.495 6 1 C6 6.94 6 12.88 6 19 C6.99 19.33 7.98 19.66 9 20 C6.03 20 3.06 20 0 20 C0.66 19.34 1.32 18.68 2 18 C2.19852102 15.29077199 2.27839477 12.70696821 2.25 10 C2.25773438 9.26265625 2.26546875 8.5253125 2.2734375 7.765625 C2.41008865 3.41578097 2.41008865 3.41578097 0 0 Z " fill="#4C4924" transform="translate(172,88)"/>
<path d="M0 0 C1.32 0 2.64 0 4 0 C4 1.32 4 2.64 4 4 C5.65 4.33 7.3 4.66 9 5 C9 7.31 9 9.62 9 12 C6.36 11.67 3.72 11.34 1 11 C0.67 7.37 0.34 3.74 0 0 Z " fill="#A5A493" transform="translate(279,122)"/>
<path d="M0 0 C2.64 0 5.28 0 8 0 C7.01 0.495 7.01 0.495 6 1 C6.33 6.28 6.66 11.56 7 17 C9.31 17.66 11.62 18.32 14 19 C14 19.33 14 19.66 14 20 C6.60437557 20.36371923 6.60437557 20.36371923 4.2734375 18.9609375 C2.34021095 15.98400582 2.50592755 12.8816865 2.4375 9.4375 C2.58170078 4.23825583 2.58170078 4.23825583 0 0 Z " fill="#44401A" transform="translate(122,88)"/>
<path d="M0 0 C2.64 0 5.28 0 8 0 C7.01 0.495 7.01 0.495 6 1 C6.64219502 2.98035021 7.28885644 4.95925256 7.9375 6.9375 C8.29714844 8.03964844 8.65679687 9.14179687 9.02734375 10.27734375 C9.73856668 12.88123475 9.73856668 12.88123475 11 14 C11.66 13.34 12.32 12.68 13 12 C12.47731534 14.76276177 11.89130413 17.3260876 11 20 C10.34 20 9.68 20 9 20 C8.79842285 19.4652002 8.5968457 18.93040039 8.38916016 18.37939453 C7.47333617 15.95911529 6.54927878 13.54206236 5.625 11.125 C5.30789062 10.28324219 4.99078125 9.44148438 4.6640625 8.57421875 C4.3546875 7.76855469 4.0453125 6.96289062 3.7265625 6.1328125 C3.30238037 5.01737061 3.30238037 5.01737061 2.86962891 3.87939453 C2.04608914 1.81622682 2.04608914 1.81622682 0 0 Z " fill="#48441F" transform="translate(184,88)"/>
<path d="M0 0 C0.66 0 1.32 0 2 0 C1.51171875 6.0546875 1.51171875 6.0546875 1 8 C0.01 8.66 -0.98 9.32 -2 10 C-2.66 9.67 -3.32 9.34 -4 9 C-4 9.66 -4 10.32 -4 11 C-4.66 11 -5.32 11 -6 11 C-6 11.66 -6 12.32 -6 13 C-7.32 13.33 -8.64 13.66 -10 14 C-9.67 13.01 -9.34 12.02 -9 11 C-8.34 11 -7.68 11 -7 11 C-7.061875 10.278125 -7.12375 9.55625 -7.1875 8.8125 C-6.96105777 5.4158666 -6.06745292 3.68003157 -4 1 C-3.01 1 -2.02 1 -1 1 C-0.67 0.67 -0.34 0.34 0 0 Z " fill="#A6A166" transform="translate(85,50)"/>
<path d="M0 0 C2.475 0.99 2.475 0.99 5 2 C5.33 4.64 5.66 7.28 6 10 C3 12 3 12 0 12 C-1.6875 10.75 -1.6875 10.75 -3 9 C-3 7.68 -3 6.36 -3 5 C-2.34 5 -1.68 5 -1 5 C-0.67 3.35 -0.34 1.7 0 0 Z " fill="#AAA66D" transform="translate(65,29)"/>
<path d="M0 0 C0 0.99 0 1.98 0 3 C-0.66 3 -1.32 3 -2 3 C-2 3.99 -2 4.98 -2 6 C-2.99 6 -3.98 6 -5 6 C-5.33 6.66 -5.66 7.32 -6 8 C-7.32 7.67 -8.64 7.34 -10 7 C-9.67 6.01 -9.34 5.02 -9 4 C-8.34 4 -7.68 4 -7 4 C-7 3.34 -7 2.68 -7 2 C-7.66 2 -8.32 2 -9 2 C-8.67 1.01 -8.34 0.02 -8 -1 C-3.375 -2.25 -3.375 -2.25 0 0 Z " fill="#A29D5F" transform="translate(29,57)"/>
<path d="M0 0 C0.99 0.33 1.98 0.66 3 1 C2.67 1.99 2.34 2.98 2 4 C2.78375 3.505 3.5675 3.01 4.375 2.5 C7 1 7 1 9 1 C9 1.66 9 2.32 9 3 C8.360625 3.28875 7.72125 3.5775 7.0625 3.875 C4.84793921 4.82823451 4.84793921 4.82823451 4 7 C5.32 6.67 6.64 6.34 8 6 C8 6.66 8 7.32 8 8 C6.02 8.99 6.02 8.99 4 10 C4.66 10.66 5.32 11.32 6 12 C5.34 12.66 4.68 13.32 4 14 C3.38125 13.67 2.7625 13.34 2.125 13 C0.08981656 11.85806765 0.08981656 11.85806765 -2 12 C-2 11.34 -2 10.68 -2 10 C-0.68 10 0.64 10 2 10 C1.649375 9.236875 1.29875 8.47375 0.9375 7.6875 C0 5 0 5 1 2 C0.34 1.67 -0.32 1.34 -1 1 C-0.67 0.67 -0.34 0.34 0 0 Z " fill="#E2E0CE" transform="translate(68,40)"/>
<path d="M0 0 C6.6 0 13.2 0 20 0 C20 0.66 20 1.32 20 2 C18.35 2 16.7 2 15 2 C14.67 2.99 14.34 3.98 14 5 C9.15311808 4.21824485 4.6233633 2.60155722 0 1 C0 0.67 0 0.34 0 0 Z " fill="#EFEEED" transform="translate(153,0)"/>
<path d="M0 0 C2.00720923 0.28674418 4.0085944 0.61866701 6 1 C6.33 3.31 6.66 5.62 7 8 C4.36 8 1.72 8 -1 8 C-1.04241723 5.66705225 -1.04092937 3.33297433 -1 1 C-0.67 0.67 -0.34 0.34 0 0 Z " fill="#636145" transform="translate(299,126)"/>
<path d="M0 0 C0.66 0.33 1.32 0.66 2 1 C2 1.99 2 2.98 2 4 C2.99 4.33 3.98 4.66 5 5 C4.60196439 7.88575819 4.20990931 8.82189513 1.9375 10.75 C0.9784375 11.36875 0.9784375 11.36875 0 12 C-0.66 10.68 -1.32 9.36 -2 8 C-2.99 8.495 -2.99 8.495 -4 9 C-3.67 7.35 -3.34 5.7 -3 4 C-2.34 4 -1.68 4 -1 4 C-0.67 2.68 -0.34 1.36 0 0 Z " fill="#A09958" transform="translate(81,69)"/>
<path d="M0 0 C1.67542976 0.28604898 3.34385343 0.61781233 5 1 C5.1875 3.875 5.1875 3.875 5 7 C2 9 2 9 -2 9 C-1.125 1.125 -1.125 1.125 0 0 Z " fill="#F7F7F6" transform="translate(366,89)"/>
<path d="M0 0 C1.66611905 -0.042721 3.33382885 -0.04063832 5 0 C6 1 6 1 6.1875 3.9375 C6 7 6 7 4 9 C2.68 9 1.36 9 0 9 C0 6.03 0 3.06 0 0 Z " fill="#F5F5F4" transform="translate(235,89)"/>
<path d="M0 0 C1.98 0 3.96 0 6 0 C6.33 0.66 6.66 1.32 7 2 C6.01 2 5.02 2 4 2 C4.33 3.65 4.66 5.3 5 7 C5.66 7 6.32 7 7 7 C6.67 8.32 6.34 9.64 6 11 C1.125 10.125 1.125 10.125 0 9 C-0.07179964 7.48071962 -0.08392007 5.95832518 -0.0625 4.4375 C-0.05347656 3.61121094 -0.04445312 2.78492188 -0.03515625 1.93359375 C-0.02355469 1.29550781 -0.01195312 0.65742187 0 0 Z " fill="#BCB88B" transform="translate(48,46)"/>
<path d="M0 0 C1.32 0.33 2.64 0.66 4 1 C3.67 1.99 3.34 2.98 3 4 C4.32 4.33 5.64 4.66 7 5 C7.33 6.32 7.66 7.64 8 9 C7.01 9.495 7.01 9.495 6 10 C6 10.66 6 11.32 6 12 C4.125 11.8125 4.125 11.8125 2 11 C-0.09242143 7.3382625 -0.19324053 4.15467129 0 0 Z " fill="#9F9A5C" transform="translate(57,35)"/>
<path d="M0 0 C1.65 0.33 3.3 0.66 5 1 C5.33 3.31 5.66 5.62 6 8 C3.69 8 1.38 8 -1 8 C-1 4.88742431 -0.82638376 2.89234315 0 0 Z " fill="#767359" transform="translate(331,126)"/>
<path d="M0 0 C2 1 2 1 3.125 4.0625 C3.41375 5.031875 3.7025 6.00125 4 7 C3.34 7 2.68 7 2 7 C2 7.99 2 8.98 2 10 C2.66 10.33 3.32 10.66 4 11 C1.03 11 -1.94 11 -5 11 C-5.33 10.34 -5.66 9.68 -6 9 C-4.68 8.67 -3.36 8.34 -2 8 C-2.33 7.34 -2.66 6.68 -3 6 C-2.67 5.34 -2.34 4.68 -2 4 C-1.01 4 -0.02 4 1 4 C0.67 2.68 0.34 1.36 0 0 Z " fill="#85836C" transform="translate(51,101)"/>
<path d="M0 0 C1.2077558 3.62326739 0.54311128 4.64146369 -1 8 C-0.34 8.33 0.32 8.66 1 9 C0.67 10.32 0.34 11.64 0 13 C0.99 13.33 1.98 13.66 3 14 C2.67 14.66 2.34 15.32 2 16 C2 16.66 2 17.32 2 18 C-0.475 17.01 -0.475 17.01 -3 16 C-3 14.68 -3 13.36 -3 12 C-2.34 12 -1.68 12 -1 12 C-1.66 10.68 -2.32 9.36 -3 8 C-3.99 8.33 -4.98 8.66 -6 9 C-5.67 8.01 -5.34 7.02 -5 6 C-4.01 6 -3.02 6 -2 6 C-2.33 4.68 -2.66 3.36 -3 2 C-2.01 2 -1.02 2 0 2 C0 1.34 0 0.68 0 0 Z " fill="#E6E5D5" transform="translate(30,48)"/>
<path d="M0 0 C4.16216275 -0.32644414 6.36313462 -0.40650982 9.9375 1.875 C12 4 12 4 12 6 C11.01 6.33 10.02 6.66 9 7 C7 6 7 6 5 3 C2.525 4.485 2.525 4.485 0 6 C0 4.02 0 2.04 0 0 Z " fill="#D5B982" transform="translate(76,67)"/>
<path d="M0 0 C2.64 0 5.28 0 8 0 C7.01 0.33 6.02 0.66 5 1 C5.02320313 2.04800781 5.04640625 3.09601563 5.0703125 4.17578125 C5.08907303 5.55468037 5.10727293 6.9335872 5.125 8.3125 C5.15013672 9.34793945 5.15013672 9.34793945 5.17578125 10.40429688 C5.21217794 14.17135396 5.14378864 15.78431704 3 19 C2.34 18.67 1.68 18.34 1 18 C1.33 17.67 1.66 17.34 2 17 C2.12653198 14.50761431 2.18519825 12.05529559 2.1875 9.5625 C2.19974609 8.86833984 2.21199219 8.17417969 2.22460938 7.45898438 C2.22989842 5.63779099 2.12169207 3.8171308 2 2 C1.34 1.34 0.68 0.68 0 0 Z " fill="#615E44" transform="translate(135,88)"/>
<path d="M0 0 C0.99 0 1.98 0 3 0 C3 3.63 3 7.26 3 11 C2.34 11 1.68 11 1 11 C1 9.02 1 7.04 1 5 C0.01 5.495 0.01 5.495 -1 6 C-0.67 7.98 -0.34 9.96 0 12 C-1.32 11.67 -2.64 11.34 -4 11 C-4 9.02 -4 7.04 -4 5 C-2.35 4.67 -0.7 4.34 1 4 C0.67 2.68 0.34 1.36 0 0 Z " fill="#4C4922" transform="translate(343,122)"/>
<path d="M0 0 C2.64 0 5.28 0 8 0 C7.01 0.33 6.02 0.66 5 1 C5 7.27 5 13.54 5 20 C4.67 20 4.34 20 4 20 C4 18.35 4 16.7 4 15 C3.34 14.67 2.68 14.34 2 14 C2.02320313 13.15695313 2.04640625 12.31390625 2.0703125 11.4453125 C2.08835938 10.34960938 2.10640625 9.25390625 2.125 8.125 C2.14820313 7.03445312 2.17140625 5.94390625 2.1953125 4.8203125 C2.30060534 1.8628949 2.30060534 1.8628949 0 0 Z " fill="#6F6C55" transform="translate(160,88)"/>
<path d="M0 0 C2.64 0 5.28 0 8 0 C8.33 1.65 8.66 3.3 9 5 C7.68 5.33 6.36 5.66 5 6 C5.33 4.35 5.66 2.7 6 1 C5.01 1 4.02 1 3 1 C3 3.97 3 6.94 3 10 C2.34 10 1.68 10 1 10 C0.67 6.7 0.34 3.4 0 0 Z " fill="#4B4822" transform="translate(311,123)"/>
<path d="M0 0 C0.33 0 0.66 0 1 0 C1 2.97 1 5.94 1 9 C1.66 9.33 2.32 9.66 3 10 C2.34 10 1.68 10 1 10 C1 12.64 1 15.28 1 18 C1.99 18.33 2.98 18.66 4 19 C1.03 19 -1.94 19 -5 19 C-3.68 18.34 -2.36 17.68 -1 17 C-1.01160156 16.443125 -1.02320313 15.88625 -1.03515625 15.3125 C-1.09676433 10.10221657 -0.74999344 5.1562049 0 0 Z " fill="#4C492B" transform="translate(234,89)"/>
<path d="M0 0 C1.5625 1.8125 1.5625 1.8125 3 4 C2.67 4.99 2.34 5.98 2 7 C1.34 6.67 0.68 6.34 0 6 C-0.33 6.99 -0.66 7.98 -1 9 C-3.46800047 7.84826645 -5.04783565 6.95216435 -7 5 C-6.34 5 -5.68 5 -5 5 C-4.67 3.68 -4.34 2.36 -4 1 C-2.68 1.99 -1.36 2.98 0 4 C0 2.68 0 1.36 0 0 Z " fill="#C7C4A0" transform="translate(44,31)"/>
<path d="M0 0 C2 0.9375 2 0.9375 3.25 4 C3.4975 4.969375 3.745 5.93875 4 6.9375 C2.68 8.2575 1.36 9.5775 0 10.9375 C-0.66 10.6075 -1.32 10.2775 -2 9.9375 C-1.67 8.9475 -1.34 7.9575 -1 6.9375 C-1.66 6.2775 -2.32 5.6175 -3 4.9375 C-3.625 2.8125 -3.625 2.8125 -4 0.9375 C-2 -0.0625 -2 -0.0625 0 0 Z " fill="#696647" transform="translate(15,70.0625)"/>
<path d="M0 0 C2.46278801 1.231394 3.42497687 2.78064923 5 5 C4.01 5 3.02 5 2 5 C2.33 5.99 2.66 6.98 3 8 C3.99 8.33 4.98 8.66 6 9 C6.33 8.01 6.66 7.02 7 6 C7.33 7.65 7.66 9.3 8 11 C5.36 10.34 2.72 9.68 0 9 C0 7.35 0 5.7 0 4 C-0.99 4.99 -1.98 5.98 -3 7 C-3.1875 4.625 -3.1875 4.625 -3 2 C-2.01 1.34 -1.02 0.68 0 0 Z " fill="#DFDDCA" transform="translate(40,56)"/>
<path d="M0 0 C0.99 0.33 1.98 0.66 3 1 C3 1.99 3 2.98 3 4 C2.34 4 1.68 4 1 4 C1 4.99 1 5.98 1 7 C-0.98 7.33 -2.96 7.66 -5 8 C-5.66 6.68 -6.32 5.36 -7 4 C-3.535 3.505 -3.535 3.505 0 3 C0 2.01 0 1.02 0 0 Z " fill="#AB9850" transform="translate(38,40)"/>
<path d="M0 0 C2.0625 0.4375 2.0625 0.4375 4 1 C4.33 3.31 4.66 5.62 5 8 C3.33388095 8.042721 1.66617115 8.04063832 0 8 C-1 7 -1 7 -1.125 4 C-1 1 -1 1 0 0 Z " fill="#96947E" transform="translate(263,126)"/>
<path d="M0 0 C2.64 0 5.28 0 8 0 C7.01 0.495 7.01 0.495 6 1 C7.32 3.64 8.64 6.28 10 9 C9.01 9.66 8.02 10.32 7 11 C6.66226562 10.37351562 6.32453125 9.74703125 5.9765625 9.1015625 C5.53054688 8.28429687 5.08453125 7.46703125 4.625 6.625 C4.18414062 5.81289062 3.74328125 5.00078125 3.2890625 4.1640625 C2.0556107 1.89185698 2.0556107 1.89185698 0 0 Z " fill="#494621" transform="translate(303,88)"/>
<path d="M0 0 C1.32 0.66 2.64 1.32 4 2 C3.51058824 7.50588235 3.51058824 7.50588235 1.0625 9.875 C-1 11 -1 11 -3 11 C-3 10.34 -3 9.68 -3 9 C-2.34 8.67 -1.68 8.34 -1 8 C-1.020625 6.865625 -1.04125 5.73125 -1.0625 4.5625 C-1 1 -1 1 0 0 Z " fill="#585534" transform="translate(371,88)"/>
<path d="M0 0 C3 1.75 3 1.75 6 4 C6 5.32 6 6.64 6 8 C3.36 8 0.72 8 -2 8 C-2 7.01 -2 6.02 -2 5 C-1.34 4.67 -0.68 4.34 0 4 C0 2.68 0 1.36 0 0 Z " fill="#AA9245" transform="translate(54,43)"/>
<path d="M0 0 C2.33944736 0.28730055 4.6739143 0.61936779 7 1 C6.360625 1.598125 5.72125 2.19625 5.0625 2.8125 C2.79689611 4.90810337 2.79689611 4.90810337 2 8 C1.01 7.67 0.02 7.34 -1 7 C-0.67 6.34 -0.34 5.68 0 5 C-0.66 5 -1.32 5 -2 5 C-1.125 1.125 -1.125 1.125 0 0 Z " fill="#9F9A5B" transform="translate(83,41)"/>
<path d="M0 0 C1.32 0 2.64 0 4 0 C4 3.63 4 7.26 4 11 C3.34 11 2.68 11 2 11 C1.67 9.35 1.34 7.7 1 6 C-2.0745356 6.7763932 -2.0745356 6.7763932 -4 9 C-3.67 7.68 -3.34 6.36 -3 5 C-1.35 4.67 0.3 4.34 2 4 C1.34 2.68 0.68 1.36 0 0 Z " fill="#49461E" transform="translate(273,122)"/>
<path d="M0 0 C1.32 0 2.64 0 4 0 C4 0.66 4 1.32 4 2 C4.66 2 5.32 2 6 2 C5.67 3.32 5.34 4.64 5 6 C4.401875 6.144375 3.80375 6.28875 3.1875 6.4375 C1.43849596 6.8872439 -0.28677023 7.42892341 -2 8 C-1.33333333 5.33333333 -0.66666667 2.66666667 0 0 Z " fill="#9E9958" transform="translate(63,59)"/>
<path d="M0 0 C1.9375 0.3125 1.9375 0.3125 4 1 C4.33 1.99 4.66 2.98 5 4 C5.66 2.68 6.32 1.36 7 0 C7.66 0.33 8.32 0.66 9 1 C7.66666667 4.33333333 6.33333333 7.66666667 5 11 C3.33167423 8.49751135 2.37618326 6.58850813 1.375 3.8125 C1.11460938 3.09707031 0.85421875 2.38164063 0.5859375 1.64453125 C0.39257812 1.10183594 0.19921875 0.55914062 0 0 Z " fill="#E4E3D2" transform="translate(51,57)"/>
<path d="M0 0 C0.33 1.32 0.66 2.64 1 4 C1.66 4 2.32 4 3 4 C3.33 2.68 3.66 1.36 4 0 C5 1 5 1 5.0625 4.5625 C5.041875 5.696875 5.02125 6.83125 5 8 C2.03824877 7.38722388 0.61941217 6.74627478 -2 5 C-2 3.68 -2 2.36 -2 1 C-1.34 0.67 -0.68 0.34 0 0 Z " fill="#9D9451" transform="translate(32,56)"/>
<path d="M0 0 C0.33 2.64 0.66 5.28 1 8 C-0.98 8 -2.96 8 -5 8 C-4.6875 5.125 -4.6875 5.125 -4 2 C-1 0 -1 0 0 0 Z " fill="#C9C8C1" transform="translate(346,92)"/>
<path d="M0 0 C0.66 0 1.32 0 2 0 C2.96070434 2.88211302 3.10581883 4.69850044 3.0625 7.6875 C3.05347656 8.49574219 3.04445313 9.30398437 3.03515625 10.13671875 C3.02355469 10.75160156 3.01195312 11.36648437 3 12 C2.34 12 1.68 12 1 12 C0.690625 10.88625 0.38125 9.7725 0.0625 8.625 C-0.82326483 5.2054845 -0.82326483 5.2054845 -2 3 C-1.34 2.01 -0.68 1.02 0 0 Z " fill="#4A471F" transform="translate(346,88)"/>
<path d="M0 0 C1.32 0.33 2.64 0.66 4 1 C3.01 2.98 2.02 4.96 1 7 C0.34 7 -0.32 7 -1 7 C-1 6.34 -1 5.68 -1 5 C-1.66 5 -2.32 5 -3 5 C-3 5.66 -3 6.32 -3 7 C-3.99 7 -4.98 7 -6 7 C-5.34 5.68 -4.68 4.36 -4 3 C-3.01 3 -2.02 3 -1 3 C-0.67 2.01 -0.34 1.02 0 0 Z " fill="#A09755" transform="translate(78,40)"/>
<path d="M0 0 C0.66 0.33 1.32 0.66 2 1 C2.625 3.5625 2.625 3.5625 3 6 C2.01 6.495 2.01 6.495 1 7 C0.59270772 9.32156597 0.25561323 11.6568787 0 14 C-0.66 13.67 -1.32 13.34 -2 13 C-1.67 12.01 -1.34 11.02 -1 10 C-2.32 9.67 -3.64 9.34 -5 9 C-4.01 9 -3.02 9 -2 9 C-1.7834375 7.0509375 -1.7834375 7.0509375 -1.5625 5.0625 C-1.125 1.125 -1.125 1.125 0 0 Z " fill="#C2BF98" transform="translate(72,26)"/>
<path d="M0 0 C2.625 0.375 2.625 0.375 5 1 C5 1.99 5 2.98 5 4 C3.35 4 1.7 4 0 4 C0.99 5.32 1.98 6.64 3 8 C1.35 7.67 -0.3 7.34 -2 7 C-2.125 4.625 -2.125 4.625 -2 2 C-1.34 1.34 -0.68 0.68 0 0 Z " fill="#6A674B" transform="translate(351,126)"/>
<path d="M0 0 C2.31 0 4.62 0 7 0 C7 0.99 7 1.98 7 3 C6.34 3 5.68 3 5 3 C5 4.65 5 6.3 5 8 C3.68 8 2.36 8 1 8 C0.67 5.36 0.34 2.72 0 0 Z " fill="#6A684B" transform="translate(289,126)"/>
<path d="M0 0 C2.625 0.375 2.625 0.375 5 1 C5.33 2.65 5.66 4.3 6 6 C2.31245243 5.50168276 0.39509338 4.89932357 -2 2 C-1.34 1.34 -0.68 0.68 0 0 Z " fill="#ABA369" transform="translate(43,55)"/>
<path d="M0 0 C0.33 1.32 0.66 2.64 1 4 C-1.31 4.33 -3.62 4.66 -6 5 C-6.66 4.01 -7.32 3.02 -8 2 C-4.77208445 -0.1519437 -3.71599191 -0.20086443 0 0 Z " fill="#A9A066" transform="translate(72,53)"/>
<path d="M0 0 C0.66 0 1.32 0 2 0 C1.67 2.31 1.34 4.62 1 7 C-0.32 6.34 -1.64 5.68 -3 5 C-3 5.66 -3 6.32 -3 7 C-2.34 7 -1.68 7 -1 7 C-1.33 7.66 -1.66 8.32 -2 9 C-2.66 8.67 -3.32 8.34 -4 8 C-4 8.99 -4 9.98 -4 11 C-4.66 11 -5.32 11 -6 11 C-4.52307692 4.35384615 -4.52307692 4.35384615 -1.875 2.5625 C-0.946875 2.2840625 -0.946875 2.2840625 0 2 C0 1.34 0 0.68 0 0 Z " fill="#908E77" transform="translate(73,4)"/>
<path d="M0 0 C0.33 0 0.66 0 1 0 C1.33 3.96 1.66 7.92 2 12 C0.35 12 -1.3 12 -3 12 C-3.66 11.34 -4.32 10.68 -5 10 C-4.625 7.375 -4.625 7.375 -4 5 C-3.34 5 -2.68 5 -2 5 C-2 6.98 -2 8.96 -2 11 C-1.34 11 -0.68 11 0 11 C0 7.37 0 3.74 0 0 Z " fill="#CECEC8" transform="translate(346,122)"/>
<path d="M0 0 C1.65 0 3.3 0 5 0 C5.33 1.65 5.66 3.3 6 5 C6.99 4.01 7.98 3.02 9 2 C9.33 3.98 9.66 5.96 10 8 C9.01 7.67 8.02 7.34 7 7 C6.01 7.495 6.01 7.495 5 8 C4.34 7.67 3.68 7.34 3 7 C3 6.34 3 5.68 3 5 C1.68 4.67 0.36 4.34 -1 4 C-0.360625 3.87625 0.27875 3.7525 0.9375 3.625 C1.9584375 3.315625 1.9584375 3.315625 3 3 C3.33 2.34 3.66 1.68 4 1 C2.68 0.67 1.36 0.34 0 0 Z " fill="#E9E7D8" transform="translate(71,67)"/>
<path d="M0 0 C2.4056198 3.84899168 2.71267364 7.54644135 3 12 C2.34 12.66 1.68 13.32 1 14 C0.01 12.02 -0.98 10.04 -2 8 C-1.34 7.01 -0.68 6.02 0 5 C-0.66 4.67 -1.32 4.34 -2 4 C-1.34 2.68 -0.68 1.36 0 0 Z " fill="#E2E0CE" transform="translate(56,34)"/>
<path d="M0 0 C0.66 0.33 1.32 0.66 2 1 C2 1.99 2 2.98 2 4 C2.66 4 3.32 4 4 4 C4 5.32 4 6.64 4 8 C3.34 8 2.68 8 2 8 C1.34 7.34 0.68 6.68 0 6 C-0.99 6.99 -1.98 7.98 -3 9 C-3.33 7.68 -3.66 6.36 -4 5 C-3.01 4.67 -2.02 4.34 -1 4 C-0.26676204 1.98491642 -0.26676204 1.98491642 0 0 Z " fill="#92893E" transform="translate(49,26)"/>
<path d="M0 0 C0.99 0.33 1.98 0.66 3 1 C4.1875 3.5625 4.1875 3.5625 5 6 C5.66 6 6.32 6 7 6 C7 7.65 7 9.3 7 11 C4.35247996 8.42215154 2.05567935 6.08351902 0 3 C0 2.01 0 1.02 0 0 Z " fill="#46431D" transform="translate(157,97)"/>
<path d="M0 0 C4.95 0 9.9 0 15 0 C15 1.65 15 3.3 15 5 C14.649375 4.525625 14.29875 4.05125 13.9375 3.5625 C11.15836457 1.32126175 8.4855283 1.32882342 5 1 C5 3.64 5 6.28 5 9 C4.67 9 4.34 9 4 9 C3.896875 7.88625 3.79375 6.7725 3.6875 5.625 C3.460625 4.42875 3.23375 3.2325 3 2 C2.01 1.34 1.02 0.68 0 0 Z " fill="#39350A" transform="translate(208,88)"/>
<path d="M0 0 C0.33 0 0.66 0 1 0 C1.33 5.94 1.66 11.88 2 18 C2.99 18.33 3.98 18.66 5 19 C2.03 19 -0.94 19 -4 19 C-2.68 18.34 -1.36 17.68 0 17 C0 11.39 0 5.78 0 0 Z " fill="#3C3816" transform="translate(292,89)"/>
<path d="M0 0 C3.3 0 6.6 0 10 0 C10 0.33 10 0.66 10 1 C8.35 1.33 6.7 1.66 5 2 C4.67 3.98 4.34 5.96 4 8 C2.68 8.33 1.36 8.66 0 9 C0.66 6.36 1.32 3.72 2 1 C1.34 0.67 0.68 0.34 0 0 Z " fill="#45421B" transform="translate(361,88)"/>
<path d="M0 0 C2.31 0.66 4.62 1.32 7 2 C7 3.32 7 4.64 7 6 C5.35 6.66 3.7 7.32 2 8 C1.33333333 5.33333333 0.66666667 2.66666667 0 0 Z " fill="#ADA871" transform="translate(32,30)"/>
<path d="M0 0 C0.33 0.66 0.66 1.32 1 2 C1.66 2.33 2.32 2.66 3 3 C2.34 3 1.68 3 1 3 C1 4.32 1 5.64 1 7 C-0.65 6.67 -2.3 6.34 -4 6 C-4 4.35 -4 2.7 -4 1 C-2.68 0.67 -1.36 0.34 0 0 Z " fill="#F5F5F4" transform="translate(297,127)"/>
<path d="M0 0 C2.9375 0.375 2.9375 0.375 6 1 C6.33 1.66 6.66 2.32 7 3 C6.34 3 5.68 3 5 3 C5.33 3.99 5.66 4.98 6 6 C5.0625 8.1875 5.0625 8.1875 4 10 C3.34 9.67 2.68 9.34 2 9 C2 7.68 2 6.36 2 5 C2.66 5 3.32 5 4 5 C4 4.34 4 3.68 4 3 C2.68 2.34 1.36 1.68 0 1 C0 0.67 0 0.34 0 0 Z " fill="#A6A165" transform="translate(25,36)"/>
<path d="M0 0 C0.53625 0.825 1.0725 1.65 1.625 2.5 C3.80271869 5.33951208 3.80271869 5.33951208 7.25 5.3125 C8.1575 5.209375 9.065 5.10625 10 5 C10.33 4.34 10.66 3.68 11 3 C11.66 3 12.32 3 13 3 C12.34 4.32 11.68 5.64 11 7 C7.37 7 3.74 7 0 7 C0 4.69 0 2.38 0 0 Z " fill="#433F1A" transform="translate(252,101)"/>
<path d="M0 0 C2.475 0.495 2.475 0.495 5 1 C4.67 2.32 4.34 3.64 4 5 C3.34 5 2.68 5 2 5 C2 5.99 2 6.98 2 8 C1.34 8 0.68 8 0 8 C0 5.36 0 2.72 0 0 Z " fill="#9E9C87" transform="translate(58,100)"/>
<path d="M0 0 C2.97 0 5.94 0 9 0 C8.67 1.32 8.34 2.64 8 4 C5.69 3.67 3.38 3.34 1 3 C0.67 2.01 0.34 1.02 0 0 Z " fill="#C0BC92" transform="translate(34,67)"/>
<path d="M0 0 C0.66 0 1.32 0 2 0 C2 0.99 2 1.98 2 3 C0.35 3.66 -1.3 4.32 -3 5 C-3.33 4.67 -3.66 4.34 -4 4 C-4.33 4.99 -4.66 5.98 -5 7 C-5.66 7 -6.32 7 -7 7 C-7.33 5.35 -7.66 3.7 -8 2 C-6.865625 1.855625 -5.73125 1.71125 -4.5625 1.5625 C-1.19222799 1.38828522 -1.19222799 1.38828522 0 0 Z " fill="#BEBB91" transform="translate(40,53)"/>
<path d="M0 0 C3.73639216 1.24546405 4.18756513 2.63404953 6 6 C4.68 6.33 3.36 6.66 2 7 C2 6.01 2 5.02 2 4 C0.35 4.66 -1.3 5.32 -3 6 C-3 4.68 -3 3.36 -3 2 C-2.01 2 -1.02 2 0 2 C0 1.34 0 0.68 0 0 Z " fill="#E1DFCD" transform="translate(40,49)"/>
<path d="M0 0 C2.31 0.66 4.62 1.32 7 2 C7 2.66 7 3.32 7 4 C6.01 4.33 5.02 4.66 4 5 C4.33 5.66 4.66 6.32 5 7 C2.08482708 5.92598892 0.22189824 5.22189824 -2 3 C-1.34 2.01 -0.68 1.02 0 0 Z " fill="#ACAA98" transform="translate(13,30)"/>
<path d="M0 0 C0.66 0.33 1.32 0.66 2 1 C0.84826645 3.46800047 -0.04783565 5.04783565 -2 7 C-2.66 7 -3.32 7 -4 7 C-5.36161311 7.96113866 -6.69855198 8.95884159 -8 10 C-7.9375 7.8125 -7.9375 7.8125 -7 5 C-4.8282781 3.06842043 -2.47398953 1.51798313 0 0 Z " fill="#454219" transform="translate(21,15)"/>
<path d="M0 0 C1.98 0.99 3.96 1.98 6 3 C5.67 4.32 5.34 5.64 5 7 C3.02 7 1.04 7 -1 7 C-0.67 6.01 -0.34 5.02 0 4 C0.33 4 0.66 4 1 4 C0.67 2.68 0.34 1.36 0 0 Z " fill="#5C593C" transform="translate(358,127)"/>
<path d="M0 0 C0.33 0 0.66 0 1 0 C1.03738281 1.05960937 1.07476562 2.11921875 1.11328125 3.2109375 C1.17893258 4.59899424 1.24538021 5.98701349 1.3125 7.375 C1.33505859 8.07367188 1.35761719 8.77234375 1.38085938 9.4921875 C1.46984296 11.77288941 1.46984296 11.77288941 2 15 C2.99 15.66 3.98 16.32 5 17 C2.03 17 -0.94 17 -4 17 C-3.01 16.34 -2.02 15.68 -1 15 C-0.61588725 12.390379 -0.39706803 9.9941926 -0.3125 7.375 C-0.27833984 6.66859375 -0.24417969 5.9621875 -0.20898438 5.234375 C-0.12648692 3.49014312 -0.06156665 1.74509605 0 0 Z " fill="#302C09" transform="translate(150,91)"/>
<path d="M0 0 C0.66 0.33 1.32 0.66 2 1 C1.67 2.65 1.34 4.3 1 6 C-1.64 6.33 -4.28 6.66 -7 7 C-7.66 5.68 -8.32 4.36 -9 3 C-6.69 3.33 -4.38 3.66 -2 4 C-1.34 2.68 -0.68 1.36 0 0 Z " fill="#B1AD7C" transform="translate(39,59)"/>
<path d="M0 0 C0.33 0 0.66 0 1 0 C1 1.98 1 3.96 1 6 C2.32 6.33 3.64 6.66 5 7 C4.67 8.32 4.34 9.64 4 11 C1.03 10.505 1.03 10.505 -2 10 C-1.01 9.67 -0.02 9.34 1 9 C0.67 8.34 0.34 7.68 0 7 C-0.04022391 4.6670134 -0.04320247 2.33293334 0 0 Z " fill="#B5B181" transform="translate(64,35)"/>
<path d="M0 0 C0.99 0.33 1.98 0.66 3 1 C3.8125 2.9375 3.8125 2.9375 4 5 C2 7 2 7 0 8 C-0.66 7.34 -1.32 6.68 -2 6 C-1.67 5.67 -1.34 5.34 -1 5 C-1.66 4.67 -2.32 4.34 -3 4 C-2.67 3.34 -2.34 2.68 -2 2 C-1.34 2 -0.68 2 0 2 C0 1.34 0 0.68 0 0 Z " fill="#E8E7D8" transform="translate(81,59)"/>
<path d="M0 0 C1.32 0 2.64 0 4 0 C3.814375 0.598125 3.62875 1.19625 3.4375 1.8125 C2.77906313 4.16408762 2.77906313 4.16408762 4 7 C2.35 6.67 0.7 6.34 -1 6 C-0.67 4.02 -0.34 2.04 0 0 Z " fill="#9C9250" transform="translate(88,52)"/>
<path d="M0 0 C0.66 0 1.32 0 2 0 C5 6.625 5 6.625 5 10 C4.34 10 3.68 10 3 10 C0 3.375 0 3.375 0 0 Z " fill="#47431C" transform="translate(251,123)"/>
<path d="M0 0 C0 0.99 0 1.98 0 3 C-0.66 3 -1.32 3 -2 3 C-2 3.66 -2 4.32 -2 5 C-3.65 5 -5.3 5 -7 5 C-6.01 4.67 -5.02 4.34 -4 4 C-4 3.34 -4 2.68 -4 2 C-5.65 1.67 -7.3 1.34 -9 1 C-9 0.67 -9 0.34 -9 0 C-3.375 -1.125 -3.375 -1.125 0 0 Z " fill="#79765D" transform="translate(15,63)"/>
<path d="M0 0 C-0.33 1.65 -0.66 3.3 -1 5 C-2.98 5.66 -4.96 6.32 -7 7 C-6.61402985 4.20171644 -6.19863427 3.1794116 -4.0625 1.25 C-2 0 -2 0 0 0 Z " fill="#B09343" transform="translate(77,37)"/>
<path d="M0 0 C0.99 0 1.98 0 3 0 C3.84098656 4.01804691 4.05404945 7.01803543 3 11 C2.34 11 1.68 11 1 11 C0.67 7.37 0.34 3.74 0 0 Z " fill="#403C0F" transform="translate(279,122)"/>
<path d="M0 0 C0.99 0 1.98 0 3 0 C3.84098656 4.01804691 4.05404945 7.01803543 3 11 C2.34 11 1.68 11 1 11 C0.67 7.37 0.34 3.74 0 0 Z " fill="#3F3B11" transform="translate(365,122)"/>
<path d="M0 0 C0.33 0 0.66 0 1 0 C1 1.65 1 3.3 1 5 C-4.28 5 -9.56 5 -15 5 C-11.13325346 2.42216897 -8.77771323 2.9517089 -4.27734375 3.22265625 C-3.52582031 3.14917969 -2.77429688 3.07570313 -2 3 C-1.34 2.01 -0.68 1.02 0 0 Z " fill="#292403" transform="translate(223,103)"/>
<path d="M0 0 C0.99 0.33 1.98 0.66 3 1 C3.33 2.98 3.66 4.96 4 7 C3.01 7.495 3.01 7.495 2 8 C1.34 7.67 0.68 7.34 0 7 C0 4.69 0 2.38 0 0 Z " fill="#555331" transform="translate(241,88)"/>
<path d="M0 0 C0.99 0 1.98 0 3 0 C3.33 2.31 3.66 4.62 4 7 C2.35 7 0.7 7 -1 7 C-0.67 4.69 -0.34 2.38 0 0 Z " fill="#6A684D" transform="translate(322,127)"/>
<path d="M0 0 C0.99 0 1.98 0 3 0 C2.67 3.3 2.34 6.6 2 10 C0.35 10 -1.3 10 -3 10 C-2.01 9.67 -1.02 9.34 0 9 C0 6.03 0 3.06 0 0 Z " fill="#B3B2A8" transform="translate(314,124)"/>
<path d="M0 0 C2.64 0.33 5.28 0.66 8 1 C8 2.98 8 4.96 8 7 C7.4225 6.360625 6.845 5.72125 6.25 5.0625 C4.01937599 3.01776132 2.92563609 2.41794801 0 2 C0 1.34 0 0.68 0 0 Z " fill="#5D5B40" transform="translate(257,87)"/>
<path d="M0 0 C0.99 0.33 1.98 0.66 3 1 C3 2.32 3 3.64 3 5 C2.34 5 1.68 5 1 5 C1 5.66 1 6.32 1 7 C-0.32 7.33 -1.64 7.66 -3 8 C-2.67 7.01 -2.34 6.02 -2 5 C-1.34 5 -0.68 5 0 5 C0 3.35 0 1.7 0 0 Z " fill="#9E9956" transform="translate(78,56)"/>
<path d="M0 0 C2.475 0.99 2.475 0.99 5 2 C5 3.32 5 4.64 5 6 C2.03 5.505 2.03 5.505 -1 5 C-0.67 3.35 -0.34 1.7 0 0 Z " fill="#948A40" transform="translate(65,29)"/>
<path d="M0 0 C0.66 0 1.32 0 2 0 C2.33 2.31 2.66 4.62 3 7 C1.35 7 -0.3 7 -2 7 C-2 5.68 -2 4.36 -2 3 C-1.34 3 -0.68 3 0 3 C0 2.01 0 1.02 0 0 Z " fill="#A1A08F" transform="translate(300,127)"/>
<path d="M0 0 C1.98 0.66 3.96 1.32 6 2 C4.25 5.875 4.25 5.875 2 7 C1.34 6.67 0.68 6.34 0 6 C0 4.02 0 2.04 0 0 Z " fill="#79765B" transform="translate(95,69)"/>
<path d="M0 0 C1.98 0.66 3.96 1.32 6 2 C6.33 3.65 6.66 5.3 7 7 C6.34 7 5.68 7 5 7 C5 6.34 5 5.68 5 5 C4.34 5 3.68 5 3 5 C3 4.34 3 3.68 3 3 C1.68 3 0.36 3 -1 3 C-1.33 3.66 -1.66 4.32 -2 5 C-1.125 1.125 -1.125 1.125 0 0 Z " fill="#CDCAAD" transform="translate(64,56)"/>
<path d="M0 0 C0.66 0 1.32 0 2 0 C2.33 1.98 2.66 3.96 3 6 C1.35 6.33 -0.3 6.66 -2 7 C-1.34 4.69 -0.68 2.38 0 0 Z " fill="#AD8F3B" transform="translate(53,35)"/>
<path d="M0 0 C0.99 0.33 1.98 0.66 3 1 C3 1.99 3 2.98 3 4 C2.34 4 1.68 4 1 4 C0.67 5.32 0.34 6.64 0 8 C-0.66 7.67 -1.32 7.34 -2 7 C-1.42415568 4.61435923 -0.77772405 2.33317216 0 0 Z " fill="#938D44" transform="translate(63,23)"/>
<path d="M0 0 C2 3 2 3 1.625 5.1875 C1.41875 5.785625 1.2125 6.38375 1 7 C0.01 6.34 -0.98 5.68 -2 5 C-2.99 5.495 -2.99 5.495 -4 6 C-4.33 4.35 -4.66 2.7 -5 1 C-2.525 1.99 -2.525 1.99 0 3 C0 2.01 0 1.02 0 0 Z " fill="#A5A491" transform="translate(45,7)"/>
<path d="M0 0 C1.9375 0.75 1.9375 0.75 4 2 C4.75 4.125 4.75 4.125 5 6 C3.68 5.67 2.36 5.34 1 5 C0.67 3.35 0.34 1.7 0 0 Z " fill="#A8A36B" transform="translate(41,46)"/>
<path d="M0 0 C0.99 0.33 1.98 0.66 3 1 C2.67 2.65 2.34 4.3 2 6 C1.01 6 0.02 6 -1 6 C-0.67 4.02 -0.34 2.04 0 0 Z " fill="#CBAB6B" transform="translate(58,29)"/>
<path d="M0 0 C0.33 0.66 0.66 1.32 1 2 C0.0625 4.125 0.0625 4.125 -1 6 C-0.01 6.33 0.98 6.66 2 7 C-0.64 7 -3.28 7 -6 7 C-4.02 4.69 -2.04 2.38 0 0 Z " fill="#3E3B1F" transform="translate(338,101)"/>
<path d="M0 0 C2.64 0 5.28 0 8 0 C7.01 0.495 7.01 0.495 6 1 C5.34444881 3.52733235 5.34444881 3.52733235 5 6 C3.31237149 4.3545622 1.6459651 2.68711423 0 1 C0 0.67 0 0.34 0 0 Z " fill="#413E15" transform="translate(184,88)"/>
<path d="M0 0 C-0.99 0.66 -1.98 1.32 -3 2 C-4.2375 2.8353125 -4.2375 2.8353125 -5.5 3.6875 C-6.325 4.120625 -7.15 4.55375 -8 5 C-8.99 4.67 -9.98 4.34 -11 4 C-7.20307814 1.17438373 -4.81430721 -0.56638908 0 0 Z " fill="#8A8433" transform="translate(71,66)"/>
<path d="M0 0 C1.32 0.33 2.64 0.66 4 1 C3.67 2.98 3.34 4.96 3 7 C2.01 6.67 1.02 6.34 0 6 C0 4.02 0 2.04 0 0 Z " fill="#8F893D" transform="translate(57,35)"/>
<path d="M0 0 C0.28875 0.61875 0.5775 1.2375 0.875 1.875 C1.93720042 4.13325765 1.93720042 4.13325765 4 6 C1.36 6 -1.28 6 -4 6 C-3.01 5.67 -2.02 5.34 -1 5 C-0.67 3.35 -0.34 1.7 0 0 Z " fill="#322E07" transform="translate(349,102)"/>
<path d="M0 0 C-0.66 0 -1.32 0 -2 0 C-2 0.66 -2 1.32 -2 2 C-5.96 1.67 -9.92 1.34 -14 1 C-14 0.67 -14 0.34 -14 0 C-12.41773035 -0.19627391 -10.83410729 -0.38165538 -9.25 -0.5625 C-8.36828125 -0.66691406 -7.4865625 -0.77132812 -6.578125 -0.87890625 C-4.11567549 -0.99456676 -2.33461936 -0.73638695 0 0 Z " fill="#413E14" transform="translate(65,99)"/>
<path d="M0 0 C1.65 0.33 3.3 0.66 5 1 C4.01 1.495 4.01 1.495 3 2 C2.67 2.99 2.34 3.98 2 5 C1.34 4.67 0.68 4.34 0 4 C-0.33 4.66 -0.66 5.32 -1 6 C-1.33 5.01 -1.66 4.02 -2 3 C-1.34 3 -0.68 3 0 3 C0 2.01 0 1.02 0 0 Z " fill="#E2E1CF" transform="translate(36,70)"/>
<path d="M0 0 C0.66 0 1.32 0 2 0 C2 0.66 2 1.32 2 2 C2.99 1.67 3.98 1.34 5 1 C5.33 2.32 5.66 3.64 6 5 C5.01 5.66 4.02 6.32 3 7 C3 5.68 3 4.36 3 3 C2.34 3 1.68 3 1 3 C0.67 2.01 0.34 1.02 0 0 Z " fill="#C2A360" transform="translate(75,45)"/>
<path d="M0 0 C0.66 0 1.32 0 2 0 C3.5625 2.8125 3.5625 2.8125 5 6 C4.67 6.99 4.34 7.98 4 9 C2.00902154 6.01353231 1.05875074 3.40312738 0 0 Z " fill="#868473" transform="translate(103,30)"/>
<path d="M0 0 C2.475 0.495 2.475 0.495 5 1 C4.67 1.99 4.34 2.98 4 4 C2.68 3.67 1.36 3.34 0 3 C0 2.01 0 1.02 0 0 Z " fill="#F0F0EE" transform="translate(249,130)"/>
<path d="M0 0 C0.99 0.66 1.98 1.32 3 2 C2.34 3.65 1.68 5.3 1 7 C0.01 6.67 -0.98 6.34 -2 6 C-1.34 4.02 -0.68 2.04 0 0 Z " fill="#45421A" transform="translate(39,95)"/>
</svg>
